<svg width="717" height="443" viewBox="0 0 717 443" fill="none" xmlns="http://www.w3.org/2000/svg">
<g clip-path="url(#clip0)">
<path d="M762 -3.05176e-05V456.551H0.160522C0.160522 298.219 179.036 216.849 377.362 216.849C575.688 216.849 680.667 -3.05176e-05 762 -3.05176e-05Z" fill="#DB99FD"/>
<g clip-path="url(#clip1)">
<path d="M140.27 278.008L173.449 259.629V235.156L341.666 153.804L381.326 177.31V192.304L384.519 194.528V207.297L398.448 215.906L418.762 206.233V174.118L553.316 102.439L595.588 123.817V423.687L331.993 497.978L140.27 481.63V278.008Z" fill="white"/>
<path d="M417.504 310.897L406.187 316.701V298.516L417.504 292.712V310.897Z" fill="#C960FF"/>
<path d="M427.371 206.717L683.421 65.3909L732.658 115.692L733.625 446.516L427.371 436.746V206.717Z" fill="white"/>
<path d="M683.421 65.3909L734.592 114.821L735.753 442.453L683.421 457.35V65.3909Z" fill="#C960FF"/>
<path d="M341.666 153.804L381.327 176.729V191.723L384.519 193.948V206.717L398.448 215.326V395.828H343.214L341.666 153.804Z" fill="#C960FF"/>
<path d="M560.281 363.326L511.528 387.606V366.518L560.281 342.335V363.326Z" fill="#C960FF"/>
<path d="M621.513 333.533L572.76 357.813L572.856 336.725L621.513 312.542V333.533Z" fill="#C960FF"/>
<path d="M630.992 329.76V307.221L655.466 297.935V319.12L630.992 329.76Z" fill="#C960FF"/>
<path d="M553.316 101.859V137.166L586.786 118.787L553.316 101.859Z" fill="#C960FF"/>
<path d="M248.9 270.27L196.471 296.388V273.849L248.9 247.634V270.27Z" fill="#C960FF"/>
<path d="M314.775 238.058L262.346 264.273V241.637L314.775 215.423V238.058Z" fill="#C960FF"/>
<path d="M212.045 323.086L159.616 349.3V326.665L212.045 300.45V323.086Z" fill="#C960FF"/>
<path d="M277.92 290.971L225.491 317.088V294.453L277.92 268.335V290.971Z" fill="#C960FF"/>
<path d="M314.774 273.075L291.462 286.134V263.499L314.774 250.44V273.075Z" fill="#C960FF"/>
<path d="M314.774 344.754L291.462 357.813V335.177L314.774 322.118V344.754Z" fill="#C960FF"/>
<path d="M182.929 372.516L159.616 385.575V363.036L182.929 349.881V372.516Z" fill="#C960FF"/>
<path d="M182.929 301.224L159.616 314.283V291.648L182.929 278.589V301.224Z" fill="#C960FF"/>
<path d="M182.929 443.807L159.616 456.866V437.617L182.929 424.558V443.807Z" fill="#C960FF"/>
<path d="M248.9 340.981L196.471 367.099V344.463L248.9 318.346V340.981Z" fill="#C960FF"/>
<path d="M314.775 308.769L262.346 334.984V312.348L314.775 286.134V308.769Z" fill="#C960FF"/>
<path d="M212.529 397.57L160.197 423.687V401.052L212.529 374.934V397.57Z" fill="#C960FF"/>
<path d="M278.403 365.358L226.071 391.475V368.937L278.403 342.722V365.358Z" fill="#C960FF"/>
<path d="M248.9 418.464L196.471 444.678V422.043L248.9 395.828V418.464Z" fill="#C960FF"/>
<path d="M314.775 386.349L262.346 412.466V389.831L314.775 363.713V386.349Z" fill="#C960FF"/>
<path d="M588.527 165.025L539.774 189.305V168.314L588.527 144.034V165.025Z" fill="#C960FF"/>
<path d="M529.037 195.399L485.507 216.97V198.204L529.037 176.633V195.399Z" fill="#C960FF"/>
<path d="M655.466 130.685L599.264 158.641V134.361L655.466 106.405V130.685Z" fill="#C960FF"/>
<path d="M559.894 214.939L511.141 239.122V218.131L559.894 193.948V214.939Z" fill="#C960FF"/>
<path d="M499.727 244.829L485.507 252.471V231.383L499.727 223.838V244.829Z" fill="#C960FF"/>
<path d="M626.059 182.727L572.373 209.328L572.469 186.306L626.059 159.705V182.727Z" fill="#C960FF"/>
<path d="M591.235 234.382L542.482 258.565L542.579 237.574L591.332 213.391L591.235 234.382Z" fill="#C960FF"/>
<path d="M530.874 262.531L488.119 284.006V265.336L530.874 243.862V262.531Z" fill="#C960FF"/>
<path d="M655.466 204.008L605.455 228.094L606.616 204.298L655.466 179.438V204.008Z" fill="#C960FF"/>
<path d="M560.281 284.102L511.528 308.285V287.294L560.281 263.111V284.102Z" fill="#C960FF"/>
<path d="M621.513 254.309L572.76 278.492L572.856 257.501L621.513 233.318V254.309Z" fill="#C960FF"/>
<path d="M655.466 280.91L599.264 306.061V281.394L655.659 255.857L655.466 280.91Z" fill="#C960FF"/>
<path d="M586.979 313.799L530.778 338.95V314.186L587.173 288.649L586.979 313.799Z" fill="#C960FF"/>
<path d="M472.351 271.044L295.622 390.992L234.874 411.596L234.487 471.28L312.743 453.094H472.351V271.044Z" fill="white"/>
<path d="M459.196 292.712L296.782 402.89L246.578 417.593V432.78H458.229L459.196 292.712Z" fill="#C960FF"/>
<path d="M423.115 314.283H418.181V432.78H423.115V314.283Z" fill="white"/>
<path d="M387.807 338.369H382.874V432.78H387.807V338.369Z" fill="white"/>
<path d="M352.5 362.456H347.567V432.78H352.5V362.456Z" fill="white"/>
<path d="M317.29 386.542H312.356V432.78H317.29V386.542Z" fill="white"/>
<path d="M281.982 405.791H277.049V432.78H281.982V405.791Z" fill="white"/>
<path d="M619.094 311.768L472.351 271.044V453.094L722.017 494.302V354.524L619.094 311.768Z" fill="#C960FF"/>
<path d="M464.74 301.373L299.738 408.906L300.636 410.284L465.638 302.751L464.74 301.373Z" fill="white"/>
<path d="M299.994 408.856L241.346 421.397L241.69 423.005L300.338 410.464L299.994 408.856Z" fill="white"/>
<path d="M300.143 416.339L241.485 426.273L241.76 427.895L300.417 417.96L300.143 416.339Z" fill="white"/>
<path d="M463.149 317.519L299.792 416.392L300.644 417.799L464.001 318.925L463.149 317.519Z" fill="white"/>
<path d="M655.466 148.484V168.314L635.732 176.633V155.545L655.466 148.484Z" fill="#C960FF"/>
<path d="M630.992 250.536V227.998L655.466 218.615V239.896L630.992 250.536Z" fill="#C960FF"/>
<path d="M518.59 432.78H487.345V294.163L518.59 303.836V432.78Z" fill="white"/>
<path d="M564.054 432.78H532.809V305.77L564.054 314.573V432.78Z" fill="white"/>
<path d="M607.003 432.78H575.662V316.798L607.003 324.827V432.78Z" fill="white"/>
<path d="M607.97 335.757L485.314 302.869L485.701 301.224L608.454 334.113L607.97 335.757Z" fill="#C960FF"/>
<path d="M485.634 310.635L485.208 312.223L607.98 345.118L608.406 343.53L485.634 310.635Z" fill="#C960FF"/>
<path d="M607.97 354.62L485.314 321.731L485.701 320.087L608.454 352.976L607.97 354.62Z" fill="#C960FF"/>
<path d="M395.062 237.091L386.937 233.125V216.777L395.062 220.646V237.091Z" fill="white"/>
<path d="M395.062 257.598L386.937 253.729V237.381L395.062 241.25V257.598Z" fill="white"/>
<path d="M395.062 278.492L386.937 274.526V258.178L395.062 262.048V278.492Z" fill="white"/>
<path d="M395.062 299.29L386.937 295.324V278.976L395.062 282.942V299.29Z" fill="white"/>
<path d="M395.062 320.087L386.937 316.217V299.87L395.062 303.739V320.087Z" fill="white"/>
<path d="M395.062 332.082L386.937 337.015V320.667L395.062 324.537V332.082Z" fill="white"/>
<path d="M417.504 238.445L406.187 244.249V225.966L417.504 220.259V238.445Z" fill="#C960FF"/>
<path d="M417.504 262.628L406.187 268.335V250.15L417.504 244.442V262.628Z" fill="#C960FF"/>
<path d="M417.504 286.811L406.187 292.518V274.332L417.504 268.529V286.811Z" fill="#C960FF"/>
</g>
</g>
<defs>
<clipPath id="clip0">
<rect width="717" height="443" fill="white"/>
</clipPath>
<clipPath id="clip1">
<rect width="577" height="378" fill="white" transform="translate(140 65)"/>
</clipPath>
</defs>
</svg>
