<svg width="258" height="250" viewBox="0 0 258 250" fill="none" xmlns="http://www.w3.org/2000/svg">
<path d="M128.972 143.903C186.618 143.903 244.319 144.927 245.259 146.973C246.421 149.451 246.034 152.305 244.374 154.459L202.274 208.046C200.78 209.985 198.512 210.9 196.299 210.9C194.141 210.9 191.928 209.985 190.435 208.154L189.052 206.484C187.613 204.761 185.456 203.738 183.188 203.738H73.6494C71.1599 203.738 68.781 204.922 67.398 206.969C65.9043 209.123 63.5254 210.2 61.1466 210.2C58.9337 210.2 56.6655 209.231 55.1718 207.346L13.5694 154.459C11.9097 152.305 11.5225 149.451 12.6843 146.973C13.6247 144.927 71.2706 143.903 128.972 143.903ZM128.972 138.518C98.7657 138.518 70.496 138.787 49.4182 139.272C38.0218 139.541 29.1149 139.864 22.8082 140.241C19.3782 140.457 16.7781 140.672 14.8972 140.888C12.463 141.211 9.08826 141.642 7.64988 144.711C5.65828 148.966 6.26685 153.921 9.19893 157.691L50.8013 210.577C53.2908 213.755 57.0527 215.586 61.1466 215.586C65.517 215.586 69.5556 213.486 71.9897 209.985C72.377 209.446 72.9855 209.123 73.6494 209.123H183.188C183.796 209.123 184.349 209.392 184.737 209.823L186.12 211.493C188.609 214.509 192.316 216.232 196.299 216.232C200.393 216.232 204.155 214.401 206.644 211.224L248.744 157.637C251.677 153.921 252.285 148.966 250.294 144.657C248.855 141.534 245.48 141.103 243.046 140.834C241.165 140.618 238.565 140.403 235.135 140.187C228.828 139.81 219.922 139.487 208.525 139.218C187.392 138.787 159.178 138.518 128.972 138.518Z" fill="white"/>
<path d="M128.75 10.7712C133.121 10.7712 137.547 12.3869 140.866 15.6721L152.816 27.305L161.999 22.5119L172.953 27.8975L204.653 10.8251L220.807 26.928L221.139 93.8173L241.11 113.259C247.804 119.776 247.804 130.332 241.11 136.848L140.866 234.436C137.491 237.721 133.121 239.336 128.75 239.336C124.38 239.336 119.954 237.721 116.635 234.436L16.3909 136.848C9.69689 130.332 9.69689 119.776 16.3909 113.259L26.4595 103.458V78.6299L37.524 73.0827L37.3581 64.9505L92.5697 38.938L116.635 15.6721C120.01 12.3869 124.38 10.7712 128.75 10.7712ZM128.75 -1.52588e-05C121.227 -1.52588e-05 114.145 2.85437 108.834 8.02456L86.097 29.9978L32.545 55.2025C28.6724 57.0336 26.2383 60.9112 26.2936 65.112L26.3489 66.5123L21.4252 68.9897C17.7186 70.8208 15.4504 74.5368 15.4504 78.576V98.9336L8.64577 105.558C-2.36337 116.275 -2.36337 133.671 8.64577 144.388L108.89 241.975C114.201 247.146 121.282 250 128.861 250C136.44 250 143.466 247.146 148.833 241.975L249.076 144.388C260.086 133.671 260.086 116.275 249.076 105.558L232.369 89.2934L232.093 26.8742C232.093 24.0737 230.931 21.3809 228.939 19.3882L212.785 3.28523C210.628 1.18484 207.806 0.0538606 204.874 0.0538606C203.048 0.0538606 201.223 0.484709 199.508 1.40026L172.898 15.6721L167.144 12.8178C165.595 12.0638 163.88 11.6329 162.165 11.6329C160.395 11.6329 158.569 12.0637 156.965 12.9254L155.029 13.9487L148.888 7.97071C143.411 2.85438 136.33 -1.52588e-05 128.75 -1.52588e-05Z" fill="white"/>
<path d="M116.801 234.866L16.2803 137.01C9.58627 130.493 9.58627 119.937 16.2803 113.421L116.801 15.5644C123.495 9.04776 134.338 9.04776 141.032 15.5644L241.553 113.421C248.247 119.937 248.247 130.493 241.553 137.01L141.032 234.866C134.393 241.383 123.495 241.383 116.801 234.866Z" fill="#DB99FD"/>
<path d="M116.801 234.866L16.2803 137.01C9.58627 130.493 9.58627 119.937 16.2803 113.421C16.2803 113.421 15.4504 121.015 42.2817 120.207C62.6957 119.614 105.46 69.7974 105.46 69.7974C112.154 63.2809 167.697 120.261 175.83 115.575C209.908 95.8638 241.663 113.475 241.663 113.475C248.357 119.991 248.357 130.547 241.663 137.064L141.143 234.92C134.393 241.383 123.495 241.383 116.801 234.866Z" fill="#352A3A"/>
<path d="M128.861 10.9327C133.232 10.9327 137.657 12.5484 140.977 15.8336L152.926 27.4665L162.11 22.6733L173.064 28.0589L204.763 10.9865L220.917 27.0895L221.249 93.9788L241.221 113.421C247.915 119.937 247.915 130.493 241.221 137.01L140.977 234.597C137.602 237.882 133.232 239.498 128.861 239.498C124.491 239.498 120.065 237.882 116.746 234.597L16.5014 137.01C9.80745 130.493 9.80745 119.937 16.5014 113.421L26.5701 103.619V78.7914L37.5239 73.0826L37.4686 65.0581L92.6803 39.0455L116.746 15.7797C120.12 12.5484 124.491 10.9327 128.861 10.9327ZM128.861 5.00851C122.665 5.00851 116.801 7.37818 112.43 11.6328L89.0844 34.1985L34.8132 59.7801C32.7109 60.8034 31.3832 62.8499 31.3832 65.1657L31.4385 69.5819L23.7487 73.5673C21.7571 74.5906 20.54 76.5833 20.54 78.7914V101.142L12.2417 109.22C3.1688 118.052 3.1688 132.378 12.2417 141.211L112.486 238.798C116.856 243.052 122.72 245.422 128.916 245.422C135.113 245.422 140.977 243.052 145.347 238.798L245.591 141.211C254.664 132.378 254.664 118.052 245.591 109.22L227.39 91.5014L227.113 27.0895C227.113 25.5277 226.505 24.0736 225.399 22.9964L209.244 6.89348C208.083 5.70864 206.478 5.1162 204.874 5.1162C203.878 5.1162 202.882 5.33164 201.942 5.8702L173.064 21.3807L164.987 17.3954C164.101 16.9646 163.161 16.7491 162.22 16.7491C161.225 16.7491 160.229 16.9646 159.344 17.4493L154.143 20.1421L145.402 11.6328C140.921 7.32432 135.113 5.00851 128.861 5.00851Z" fill="#352A3A"/>
<path d="M26.6807 78.953L37.5792 73.0826V65.2735L92.7355 39.261L105.736 46.8009V51.5941L106.787 52.2403V56.3873L111.379 59.0801L118.073 56.0103V45.7776L162.22 22.8349L176.051 29.6746V125.485L89.5822 149.235L26.6807 144.011V78.953Z" fill="white"/>
<path d="M117.631 89.4549L113.924 91.286V85.4695L117.631 83.6384V89.4549Z" fill="#C960FF"/>
<path d="M120.84 56.1719L204.874 11.0405L221.029 27.0896L221.36 132.755L120.84 129.685V56.1719Z" fill="white"/>
<path d="M204.874 11.0405L221.637 26.8203L222.024 131.463L204.874 136.256V11.0405Z" fill="#C960FF"/>
<path d="M92.7358 39.2611L105.737 46.5855V51.3787L106.788 52.0788V56.1719L111.379 58.9186V116.598H93.2338L92.7358 39.2611Z" fill="#C960FF"/>
<path d="M164.489 106.204L148.5 113.959V107.227L164.489 99.526V106.204Z" fill="#C960FF"/>
<path d="M184.571 96.6716L168.583 104.427V97.6949L184.571 89.9935V96.6716Z" fill="#C960FF"/>
<path d="M187.669 95.4868V88.2701L195.691 85.308V92.0939L187.669 95.4868Z" fill="#C960FF"/>
<path d="M162.22 22.6733V33.9831L173.174 28.0589L162.22 22.6733Z" fill="#C960FF"/>
<path d="M62.3083 76.4757L45.103 84.8234V77.6067L62.3083 69.259V76.4757Z" fill="#C960FF"/>
<path d="M83.9396 66.1892L66.7344 74.5369V67.3202L83.9396 58.9725V66.1892Z" fill="#C960FF"/>
<path d="M50.193 93.3327L32.9878 101.734V94.4636L50.193 86.1159V93.3327Z" fill="#C960FF"/>
<path d="M71.8239 83.1L54.6187 91.4477V84.231L71.8239 75.8295V83.1Z" fill="#C960FF"/>
<path d="M83.9393 77.3912L76.2495 81.5381V74.3214L83.9393 70.1206V77.3912Z" fill="#C960FF"/>
<path d="M83.9393 100.28L76.2495 104.427V97.2103L83.9393 93.0634V100.28Z" fill="#C960FF"/>
<path d="M40.6776 109.166L32.9878 113.313V106.097L40.6776 101.95V109.166Z" fill="#C960FF"/>
<path d="M40.6776 86.3314L32.9878 90.5321V83.3154L40.6776 79.1146V86.3314Z" fill="#C960FF"/>
<path d="M40.6776 131.894L32.9878 136.094V129.955L40.6776 125.754V131.894Z" fill="#C960FF"/>
<path d="M62.3083 99.0414L45.103 107.443V100.172L62.3083 91.8246V99.0414Z" fill="#C960FF"/>
<path d="M83.9396 88.7549L66.7344 97.1564V89.8859L83.9396 81.5382V88.7549Z" fill="#C960FF"/>
<path d="M50.4147 117.137L33.2095 125.485V118.268L50.4147 109.92V117.137Z" fill="#C960FF"/>
<path d="M71.9899 106.85L54.7847 115.198V107.981L71.9899 99.6338V106.85Z" fill="#C960FF"/>
<path d="M62.3083 123.815L45.103 132.163V124.946L62.3083 116.598V123.815Z" fill="#C960FF"/>
<path d="M83.9396 113.529L66.7344 121.93V114.66L83.9396 106.312V113.529Z" fill="#C960FF"/>
<path d="M173.727 42.8694L157.739 50.6247V43.8927L173.727 36.1374V42.8694Z" fill="#C960FF"/>
<path d="M154.199 52.5635L139.926 59.4571V53.4791L154.199 46.5316V52.5635Z" fill="#C960FF"/>
<path d="M195.69 31.8827L177.268 40.8228V33.0675L195.69 24.1274V31.8827Z" fill="#C960FF"/>
<path d="M164.323 58.8108L148.334 66.5123V59.8341L164.323 52.0788V58.8108Z" fill="#C960FF"/>
<path d="M144.628 68.3433L139.926 70.7669V64.0887L144.628 61.6113V68.3433Z" fill="#C960FF"/>
<path d="M186.064 48.5243L168.417 57.0336L168.472 49.6553L186.064 41.146V48.5243Z" fill="#C960FF"/>
<path d="M174.613 65.0043L158.625 72.7596L158.68 66.0276L174.668 58.2723L174.613 65.0043Z" fill="#C960FF"/>
<path d="M154.808 73.9982L140.811 80.8379V74.9137L154.808 68.0202V73.9982Z" fill="#C960FF"/>
<path d="M195.69 55.3101L179.26 63.0116L179.647 55.364L195.69 47.4472V55.3101Z" fill="#C960FF"/>
<path d="M164.489 80.8918L148.5 88.6471V81.9151L164.489 74.1598V80.8918Z" fill="#C960FF"/>
<path d="M184.571 71.3593L168.583 79.1145V72.3825L184.571 64.6811V71.3593Z" fill="#C960FF"/>
<path d="M195.69 79.8686L177.268 87.8931V80.0301L195.746 71.844L195.69 79.8686Z" fill="#C960FF"/>
<path d="M173.23 90.3705L154.752 98.395L154.807 90.532L173.285 82.3459L173.23 90.3705Z" fill="#C960FF"/>
<path d="M135.611 76.691L77.6331 115.037L57.7171 121.607L57.6064 140.726L83.276 134.909H135.611V76.691Z" fill="white"/>
<path d="M131.295 83.6384L78.0198 118.86L61.5337 123.546V128.393H130.963L131.295 83.6384Z" fill="#C960FF"/>
<path d="M119.456 90.532H117.852V128.393H119.456V90.532Z" fill="white"/>
<path d="M107.894 98.2335H106.29V128.393H107.894V98.2335Z" fill="white"/>
<path d="M96.2762 105.935H94.6719V128.393H96.2762V105.935Z" fill="white"/>
<path d="M84.7137 113.582H83.1094V128.339H84.7137V113.582Z" fill="white"/>
<path d="M73.1517 119.776H71.5474V128.393H73.1517V119.776Z" fill="white"/>
<path d="M183.796 89.7242L135.61 76.691V134.909L217.543 148.05V103.404L183.796 89.7242Z" fill="#C960FF"/>
<path d="M196.244 208.154C194.806 208.154 193.423 207.508 192.537 206.43L191.154 204.761C189.218 202.391 186.286 200.991 183.133 200.991H73.5945C70.1645 200.991 66.9558 202.66 65.0748 205.407C64.1897 206.7 62.7513 207.454 61.1469 207.454C59.6532 207.454 58.2701 206.807 57.385 205.623L15.7826 152.736C14.7315 151.389 14.5102 149.558 15.2294 147.997C17.1104 144.011 20.0425 137.979 22.1447 133.617C22.9192 132.001 24.6342 130.978 26.4598 130.978H231.54C233.365 130.978 235.025 132.001 235.855 133.617C237.57 137.171 240.834 143.742 242.77 147.997C243.489 149.558 243.268 151.336 242.217 152.736L200.117 206.323C199.121 207.507 197.738 208.154 196.244 208.154Z" fill="white"/>
<path d="M231.484 133.779C232.259 133.779 232.978 134.209 233.31 134.856C235.412 139.218 238.344 145.196 240.225 149.181C240.502 149.828 240.446 150.582 240.004 151.174L197.904 204.761C197.406 205.407 196.686 205.515 196.299 205.515C195.967 205.515 195.248 205.407 194.75 204.815L193.367 203.145C190.878 200.129 187.171 198.406 183.188 198.406H73.6497C69.2792 198.406 65.2407 200.506 62.8065 204.007C62.3086 204.761 61.5341 204.869 61.1468 204.869C60.7596 204.869 60.0957 204.761 59.5425 204.115L17.9401 151.228C17.4975 150.635 17.3869 149.881 17.7188 149.235C19.5444 145.25 22.4765 139.272 24.6341 134.909C24.966 134.263 25.6852 133.832 26.4597 133.832H231.484V133.779ZM231.484 128.393H26.4044C23.5276 128.393 20.8722 130.009 19.5998 132.54C17.6082 136.633 14.5655 142.88 12.6845 146.973C11.5227 149.451 11.91 152.305 13.5696 154.459L55.172 207.346C56.6657 209.285 58.9339 210.2 61.1468 210.2C63.5257 210.2 65.9045 209.123 67.3982 206.969C68.7813 204.922 71.1601 203.738 73.6497 203.738H183.188C185.456 203.738 187.614 204.761 189.052 206.484L190.435 208.154C191.929 209.985 194.142 210.9 196.299 210.9C198.512 210.9 200.78 209.931 202.274 208.046L244.374 154.459C246.034 152.305 246.421 149.451 245.259 146.973C243.378 142.88 240.336 136.687 238.344 132.54C237.016 130.009 234.361 128.393 231.484 128.393Z" fill="#352A3A"/>
<path fill-rule="evenodd" clip-rule="evenodd" d="M78.8452 120.596L132.95 86.2357L133.512 87.0731L79.407 121.433L78.8452 120.596Z" fill="white"/>
<path fill-rule="evenodd" clip-rule="evenodd" d="M79.2332 121.504L59.981 125.489L59.7671 124.511L79.0193 120.526L79.2332 121.504Z" fill="white"/>
<path fill-rule="evenodd" clip-rule="evenodd" d="M79.2108 123.931L59.9586 127.055L59.7896 126.069L79.0417 122.945L79.2108 123.931Z" fill="white"/>
<path fill-rule="evenodd" clip-rule="evenodd" d="M78.8599 123.011L132.467 91.397L133 92.2522L79.3926 123.866L78.8599 123.011Z" fill="white"/>
<path d="M195.69 37.5915V43.8926L189.218 46.5316V39.7996L195.69 37.5915Z" fill="#C960FF"/>
<path d="M187.669 70.1745V62.9577L195.691 59.9957V66.7815L187.669 70.1745Z" fill="#C960FF"/>
<path d="M150.824 128.393H140.534V84.1232L150.824 87.193V128.393Z" fill="white"/>
<path d="M165.706 128.393H155.471V87.7854L165.706 90.6398V128.393Z" fill="white"/>
<path d="M179.813 128.393H169.523V91.3399L179.813 93.9249V128.393Z" fill="white"/>
<path fill-rule="evenodd" clip-rule="evenodd" d="M180.068 97.6393L139.793 87.1373L140.059 86.1714L180.334 96.6734L180.068 97.6393Z" fill="#C960FF"/>
<path fill-rule="evenodd" clip-rule="evenodd" d="M180.067 100.655L139.792 90.0993L140.059 89.1337L180.334 99.6895L180.067 100.655Z" fill="#C960FF"/>
<path fill-rule="evenodd" clip-rule="evenodd" d="M180.068 103.617L139.793 93.1154L140.059 92.1495L180.334 102.651L180.068 103.617Z" fill="#C960FF"/>
<path d="M110.273 65.8659L107.618 64.6272V59.4032L110.273 60.6419V65.8659Z" fill="white"/>
<path d="M110.273 72.4364L107.618 71.1978V65.9737L110.273 67.2124V72.4364Z" fill="white"/>
<path d="M110.273 79.1145L107.618 77.8219V72.5979L110.273 73.8366V79.1145Z" fill="white"/>
<path d="M110.273 85.7389L107.618 84.5002V79.2761L110.273 80.5148V85.7389Z" fill="white"/>
<path d="M110.273 92.4171L107.618 91.1245V85.9005L110.273 87.193V92.4171Z" fill="white"/>
<path d="M110.273 96.2408L107.618 97.8026V92.5786L110.273 93.8173V96.2408Z" fill="white"/>
<path d="M117.631 66.2968L113.924 68.1279V62.3114L117.631 60.4803V66.2968Z" fill="#C960FF"/>
<path d="M117.631 74.0521L113.924 75.8832V70.0668L117.631 68.2356V74.0521Z" fill="#C960FF"/>
<path d="M117.631 81.7536L113.924 83.5847V77.7682L117.631 75.9371V81.7536Z" fill="#C960FF"/>
<path d="M61.8645 144.119H66.1797V161.407H61.8645V154.244H55.0046V161.407H50.6895V144.119H55.0046V151.066H61.8645V144.119Z" fill="#352A3A"/>
<path d="M80.7858 161.407L79.7899 158.498H73.4279L72.4321 161.407H67.8403L74.0364 144.065H79.292L85.4329 161.407H80.7858ZM74.5343 155.267H78.7388L76.6366 149.127L74.5343 155.267Z" fill="#352A3A"/>
<path d="M88.0334 159.037C86.2631 157.367 85.3779 155.267 85.3779 152.682C85.3779 150.097 86.2631 147.996 88.0334 146.327C89.8037 144.657 91.9613 143.85 94.5061 143.85C96.4977 143.85 98.2127 144.334 99.7617 145.358C101.311 146.381 102.362 147.781 102.97 149.612H97.8254C97.1616 148.374 96.0552 147.727 94.5615 147.727C93.0678 147.727 91.906 148.158 91.0762 149.074C90.2463 149.989 89.8037 151.174 89.8037 152.682C89.8037 154.19 90.2463 155.375 91.0762 156.29C91.906 157.206 93.1231 157.637 94.5615 157.637C96.0552 157.637 97.1063 156.99 97.8254 155.752H102.97C102.362 157.583 101.311 158.983 99.7617 160.006C98.2127 161.03 96.4977 161.514 94.5061 161.514C91.9613 161.568 89.8037 160.707 88.0334 159.037Z" fill="#352A3A"/>
<path d="M109.664 161.407H105.349V144.119H109.664V151.713L115.528 144.119H121.171L113.869 152.79L121.171 161.461H115.584L109.609 153.813V161.407H109.664Z" fill="#352A3A"/>
<path d="M132.734 159.037C130.963 157.367 130.078 155.267 130.078 152.682C130.078 150.097 130.963 147.996 132.734 146.327C134.504 144.657 136.661 143.85 139.206 143.85C141.751 143.85 143.909 144.657 145.679 146.327C147.449 147.996 148.279 150.097 148.279 152.682C148.279 155.267 147.394 157.367 145.624 159.037C143.853 160.707 141.696 161.568 139.151 161.568C136.661 161.568 134.504 160.76 132.734 159.037ZM142.636 156.344C143.466 155.429 143.909 154.244 143.909 152.736C143.909 151.228 143.466 150.043 142.636 149.127C141.806 148.212 140.645 147.781 139.206 147.781C137.768 147.781 136.662 148.212 135.776 149.127C134.947 150.043 134.504 151.228 134.504 152.736C134.504 154.244 134.947 155.429 135.776 156.344C136.606 157.26 137.768 157.691 139.206 157.691C140.645 157.691 141.751 157.206 142.636 156.344Z" fill="#352A3A"/>
<path d="M162.331 144.065H166.646V161.407H162.331L155.084 150.474V161.407H150.769V144.065H155.084L162.331 154.998V144.065Z" fill="#352A3A"/>
<path d="M50.1372 172.124V168.516H65.8488V172.124H60.4271V187.904H55.5588V172.124H50.1372Z" fill="#352A3A"/>
<path d="M80.4537 168.516H85.322V187.904H80.4537V179.879H72.7639V187.904H67.8955V168.516H72.7639V176.271H80.4537V168.516Z" fill="#352A3A"/>
<path d="M101.255 168.462V172.07H94.0632V176.217H100.425V179.825H94.0632V184.295H101.255V187.904H89.1948V168.462H101.255Z" fill="#352A3A"/>
<path d="M126.427 168.516H131.295V187.904H126.427V179.879H118.737V187.904H113.869V168.516H118.737V176.271H126.427V168.516Z" fill="#352A3A"/>
<path d="M135.223 187.904V168.516H140.091V187.904H135.223Z" fill="#352A3A"/>
<path d="M143.964 168.516H148.832V184.296H154.862V187.904H143.964V168.516Z" fill="#352A3A"/>
<path d="M156.854 168.516H161.722V184.296H167.752V187.904H156.854V168.516Z" fill="#352A3A"/>
<path d="M204.637 152.639L192.084 181.949H183.331L196.035 153.564H180.48V146.456H204.637V152.639Z" fill="#C960FF"/>
</svg>
