<svg width="2731" height="1731" viewBox="0 0 2731 1731" fill="none" xmlns="http://www.w3.org/2000/svg">
<g opacity="0.4">
<g filter="url(#filter0_f_187_6)">
<path d="M2035.09 737.047C2135.62 618.713 2082.94 504.326 2191.62 390.923C2411.06 161.957 2475.16 960.552 2191.62 1136.11C1977.14 1268.91 1489.68 1355.97 1503 1136.11C1512.77 974.765 1752.3 985.814 1889.97 870.069C1949.33 820.169 1986.51 794.226 2035.09 737.047Z" fill="#C960FF"/>
</g>
<g filter="url(#filter1_f_187_6)">
<path d="M696.414 832.024C583.037 785.819 595.62 661.367 471.444 640.904C257.586 605.663 371.121 939.367 471.444 1097.81C665.163 1403.76 1662.42 1429.88 1550.1 1097.81C1502.67 957.579 1433.87 842.739 1260.47 810.245C1134.59 786.655 1067.9 874.686 938.773 872.914C842.147 871.588 782.912 867.274 696.414 832.024Z" fill="#942EFF"/>
</g>
<g filter="url(#filter2_f_187_6)">
<path d="M696.414 874.853C583.037 828.649 595.62 704.196 471.444 683.734C257.586 648.493 371.121 982.196 471.444 1140.64C665.163 1446.59 1662.42 1472.71 1550.1 1140.64C1502.67 1000.41 1433.87 885.569 1260.47 853.075C1134.59 829.485 1067.9 917.516 938.773 915.744C842.147 914.418 782.912 910.104 696.414 874.853Z" fill="#FF00F5"/>
</g>
<g filter="url(#filter3_f_187_6)">
<ellipse cx="1562.73" cy="1086.46" rx="534.877" ry="290.406" fill="#FF4545"/>
</g>
<g filter="url(#filter4_f_187_6)">
<ellipse cx="1456.14" cy="1086.46" rx="410.413" ry="223.55" fill="#FF50D4"/>
</g>
<g filter="url(#filter5_f_187_6)">
<ellipse cx="1970.59" cy="996.101" rx="192.122" ry="157.216" fill="#FF5A78"/>
</g>
</g>
<defs>
<filter id="filter0_f_187_6" x="1152.73" y="0" width="1578.27" height="1620.32" filterUnits="userSpaceOnUse" color-interpolation-filters="sRGB">
<feFlood flood-opacity="0" result="BackgroundImageFix"/>
<feBlend mode="normal" in="SourceGraphic" in2="BackgroundImageFix" result="shape"/>
<feGaussianBlur stdDeviation="175" result="effect1_foregroundBlur_187_6"/>
</filter>
<filter id="filter1_f_187_6" x="0" y="288.317" width="1908.9" height="1398.85" filterUnits="userSpaceOnUse" color-interpolation-filters="sRGB">
<feFlood flood-opacity="0" result="BackgroundImageFix"/>
<feBlend mode="normal" in="SourceGraphic" in2="BackgroundImageFix" result="shape"/>
<feGaussianBlur stdDeviation="175" result="effect1_foregroundBlur_187_6"/>
</filter>
<filter id="filter2_f_187_6" x="0" y="331.146" width="1908.9" height="1398.85" filterUnits="userSpaceOnUse" color-interpolation-filters="sRGB">
<feFlood flood-opacity="0" result="BackgroundImageFix"/>
<feBlend mode="normal" in="SourceGraphic" in2="BackgroundImageFix" result="shape"/>
<feGaussianBlur stdDeviation="175" result="effect1_foregroundBlur_187_6"/>
</filter>
<filter id="filter3_f_187_6" x="677.851" y="446.055" width="1769.75" height="1280.81" filterUnits="userSpaceOnUse" color-interpolation-filters="sRGB">
<feFlood flood-opacity="0" result="BackgroundImageFix"/>
<feBlend mode="normal" in="SourceGraphic" in2="BackgroundImageFix" result="shape"/>
<feGaussianBlur stdDeviation="175" result="effect1_foregroundBlur_187_6"/>
</filter>
<filter id="filter4_f_187_6" x="895.723" y="712.911" width="1120.83" height="747.1" filterUnits="userSpaceOnUse" color-interpolation-filters="sRGB">
<feFlood flood-opacity="0" result="BackgroundImageFix"/>
<feBlend mode="normal" in="SourceGraphic" in2="BackgroundImageFix" result="shape"/>
<feGaussianBlur stdDeviation="75" result="effect1_foregroundBlur_187_6"/>
</filter>
<filter id="filter5_f_187_6" x="1528.47" y="588.885" width="884.243" height="814.432" filterUnits="userSpaceOnUse" color-interpolation-filters="sRGB">
<feFlood flood-opacity="0" result="BackgroundImageFix"/>
<feBlend mode="normal" in="SourceGraphic" in2="BackgroundImageFix" result="shape"/>
<feGaussianBlur stdDeviation="125" result="effect1_foregroundBlur_187_6"/>
</filter>
</defs>
</svg>
