<svg width="537" height="163" viewBox="0 0 537 163" fill="none" xmlns="http://www.w3.org/2000/svg">
<path d="M72.355 160H97.15V58.21H72.355V98.085H33.785V58.21H8.99V160H33.785V118.095H72.355V160ZM219.595 108.815C219.595 78.22 196.54 56.76 167.54 56.76C138.685 56.76 115.195 78.22 115.195 108.815C115.195 139.41 138.685 161.015 167.54 161.015C196.395 161.015 219.595 139.41 219.595 108.815ZM140.57 108.815C140.57 90.69 151.01 79.235 167.54 79.235C183.78 79.235 194.365 90.69 194.365 108.815C194.365 126.65 183.78 138.395 167.54 138.395C151.01 138.395 140.57 126.65 140.57 108.815ZM232.229 78.075H259.199V160H283.994V78.075H310.964V58.21H232.229V78.075ZM391.123 160H415.918V58.21H391.123V98.085H352.553V58.21H327.758V160H352.553V118.095H391.123V160Z" fill="#F0F0F0"/>
<path d="M465.925 103.16C455.775 107.945 449.83 116.935 449.83 128.97C449.83 150.14 467.375 162.03 488.98 162.03C510.585 162.03 528.13 150.14 528.13 128.97C528.13 116.935 522.185 108.09 511.89 103.16C519.865 98.955 525.52 91.27 525.52 80.395C525.52 65.315 513.92 51.975 488.98 51.975C464.04 51.975 452.295 65.315 452.295 80.395C452.295 91.56 457.805 98.81 465.925 103.16ZM488.98 96.49C481.875 96.49 476.51 91.995 476.51 84.31C476.51 76.19 481.585 71.695 488.98 71.695C496.375 71.695 501.45 76.19 501.45 84.165C501.45 91.85 496.085 96.49 488.98 96.49ZM488.98 113.89C497.825 113.89 503.915 119.11 503.915 127.81C503.915 135.64 498.405 141.73 488.98 141.73C479.41 141.73 473.755 135.785 473.755 127.81C473.755 118.82 480.135 113.89 488.98 113.89Z" fill="url(#paint0_linear)"/>
<defs>
<linearGradient id="paint0_linear" x1="518.731" y1="66.4151" x2="461.481" y2="161.416" gradientUnits="userSpaceOnUse">
<stop stop-color="#FF5F96"/>
<stop offset="1" stop-color="#BD01FF"/>
</linearGradient>
</defs>
</svg>
