<svg width="513" height="513" viewBox="0 0 513 513" fill="none" xmlns="http://www.w3.org/2000/svg">
<rect x="0.128662" y="0.434082" width="512" height="512" rx="256" fill="url(#paint0_radial_6_3040)"/>
<path d="M136.599 342.595L193.085 366.938L256.804 383.425L255.806 461.408L141.515 393.876C138.641 392.178 136.599 388.753 136.599 385.629L136.599 342.595Z" fill="url(#paint1_linear_6_3040)"/>
<path d="M375.765 341.692L319.317 366.098L255.642 382.59L255.642 461.408L367.046 396.823C370.608 394.758 372.389 393.725 373.623 392.141C374.16 391.45 374.614 390.696 374.963 389.91C375.765 388.107 375.765 386.176 375.765 382.314L375.765 341.692Z" fill="url(#paint2_linear_6_3040)"/>
<path d="M240.69 279.521C246.399 276.286 255.27 276.176 261.199 279.265L370.785 336.37C377.468 339.852 377.827 346.002 371.565 349.756L267.036 412.425C261.047 416.016 251.327 415.998 245.373 412.386L140.844 348.966C134.821 345.312 134.99 339.402 141.218 335.874L240.69 279.521Z" fill="#FFB1EF"/>
<ellipse cx="259.053" cy="342.998" rx="47.7287" ry="25.0575" fill="url(#paint3_radial_6_3040)"/>
<g filter="url(#filter0_f_6_3040)">
<path fill-rule="evenodd" clip-rule="evenodd" d="M323.487 263.052H188.654L208.93 341.923H209.185C209.016 342.968 208.93 344.028 208.93 345.101C208.93 362.312 231.17 376.265 258.605 376.265C286.04 376.265 308.281 362.312 308.281 345.101C308.281 344.028 308.194 342.968 308.026 341.923H308.281L323.487 263.052Z" fill="url(#paint4_linear_6_3040)"/>
</g>
<path d="M274.454 336.104C274.454 344.735 265.122 343.19 253.6 336.538C242.078 329.885 232.746 320.655 232.746 312.024C232.746 304.275 237.159 314.068 253.6 323.56C270.04 333.052 274.454 328.765 274.454 336.104Z" fill="white"/>
<path fill-rule="evenodd" clip-rule="evenodd" d="M253.879 312.977C270.32 322.469 283.658 322.577 283.658 304.732C283.658 295.552 287.916 291.006 292.808 285.782C299.412 278.731 307.172 270.445 307.172 247.861C307.172 215.106 283.317 174.791 253.879 157.795C224.44 140.798 200.585 153.568 200.585 186.324C200.585 206.231 207.6 221.952 213.967 236.22C219.257 248.074 224.099 258.927 224.099 270.345C224.099 286.637 237.438 303.485 253.879 312.977ZM279.365 246.942C279.365 256.469 274.641 262.065 267.49 262.683L267.49 296.561C267.49 302.787 262.471 301.884 253.877 296.922C245.282 291.96 240.264 286.551 240.264 280.842L240.264 246.964C233.113 238.089 228.389 227.003 228.389 217.511C228.389 209.325 231.932 204.01 237.475 202.327C238.955 201.868 239.427 206.28 239.991 211.545C240.564 216.9 241.231 223.139 243.15 226.033C247.185 232.077 260.7 240.018 264.604 238.419C266.289 237.72 266.69 232.689 267.059 228.073C267.493 222.627 267.882 217.759 270.278 221.265C275.855 229.369 279.365 238.756 279.365 246.942Z" fill="white"/>
<path d="M282.15 446.73C276.56 453.514 270.742 461.759 256.187 461.759C241.632 461.759 229.133 450.223 229.133 446.104C234.567 448.81 241.632 457.845 256.187 457.845C270.742 457.845 278.46 447.409 282.15 446.73Z" fill="#9C28C5"/>
<path d="M76.7432 129.714L137.991 166.506L129.029 181.425L103.814 166.278L89.8729 189.486L115.087 204.633L106.125 219.552L44.8776 182.76L53.8398 167.841L77.8328 182.254L91.774 159.046L67.781 144.633L76.7432 129.714Z" fill="white"/>
<path d="M170.411 140.919C164.73 144.504 158.676 146.48 152.247 146.846C145.876 147.176 139.8 145.876 134.019 142.945C128.259 139.921 123.514 135.454 119.784 129.544C116.054 123.633 114.081 117.457 113.866 111.013C113.708 104.533 115.149 98.4891 118.188 92.88C121.285 87.2348 125.673 82.6195 131.354 79.0343C137.035 75.4491 143.061 73.4915 149.432 73.1614C155.86 72.7952 161.907 74.1136 167.574 77.1167C173.298 80.0836 178.025 84.5222 181.755 90.4324C185.485 96.3425 187.476 102.548 187.727 109.049C187.942 115.492 186.53 121.519 183.491 127.128C180.452 132.737 176.092 137.334 170.411 140.919ZM161.937 127.492C166.757 124.45 169.587 120.417 170.428 115.393C171.327 110.333 170.11 105.163 166.778 99.8842C163.41 94.5479 159.267 91.2252 154.349 89.9162C149.452 88.5136 144.594 89.3333 139.774 92.3753C134.896 95.4535 131.991 99.494 131.056 104.497C130.179 109.463 131.442 114.644 134.846 120.037C138.214 125.374 142.347 128.743 147.244 130.146C152.162 131.455 157.06 130.57 161.937 127.492Z" fill="white"/>
<path d="M248.686 41.4293L250.508 55.2535L231.739 57.7264L239.25 114.739L221.995 117.012L214.484 59.9998L195.715 62.4726L193.894 48.6484L248.686 41.4293Z" fill="white"/>
<path d="M343.667 58.4457L323.676 127.041L306.967 122.171L315.197 93.9317L289.205 86.3567L280.975 114.596L264.266 109.726L284.257 41.1313L300.966 46.0009L293.135 72.8722L319.127 80.4472L326.958 53.576L343.667 58.4457Z" fill="white"/>
<path d="M383.401 181.057L391.994 156.221L366.815 159.275L354.853 143.565L397.635 139.773L411.39 99.8758L423.66 115.99L415.187 140.479L440 137.448L451.962 153.158L409.546 156.928L395.672 197.171L383.401 181.057Z" fill="url(#paint5_linear_6_3040)"/>
<path d="M470.463 199.003L402.672 221.571L397.175 205.057L464.966 182.49L470.463 199.003Z" fill="url(#paint6_linear_6_3040)"/>
<defs>
<filter id="filter0_f_6_3040" x="185.074" y="259.473" width="141.993" height="120.372" filterUnits="userSpaceOnUse" color-interpolation-filters="sRGB">
<feFlood flood-opacity="0" result="BackgroundImageFix"/>
<feBlend mode="normal" in="SourceGraphic" in2="BackgroundImageFix" result="shape"/>
<feGaussianBlur stdDeviation="1.78982" result="effect1_foregroundBlur_6_3040"/>
</filter>
<radialGradient id="paint0_radial_6_3040" cx="0" cy="0" r="1" gradientUnits="userSpaceOnUse" gradientTransform="translate(256.129 270.707) rotate(-90) scale(270.273 265.381)">
<stop offset="0.0622038" stop-color="#B557A6"/>
<stop offset="0.855744" stop-color="#261845"/>
</radialGradient>
<linearGradient id="paint1_linear_6_3040" x1="64.266" y1="328.709" x2="169.029" y2="482.29" gradientUnits="userSpaceOnUse">
<stop offset="0.43" stop-color="#FFB1EF"/>
<stop offset="1" stop-color="#C536A5"/>
</linearGradient>
<linearGradient id="paint2_linear_6_3040" x1="412.672" y1="361.909" x2="318.015" y2="473.397" gradientUnits="userSpaceOnUse">
<stop offset="0.53" stop-color="#FFB1EF"/>
<stop offset="1" stop-color="#C536A5"/>
</linearGradient>
<radialGradient id="paint3_radial_6_3040" cx="0" cy="0" r="1" gradientUnits="userSpaceOnUse" gradientTransform="translate(259.053 355.258) rotate(90) scale(66.8529 127.339)">
<stop stop-color="#9D29C5"/>
<stop offset="0.416667" stop-color="#AF3CD8"/>
</radialGradient>
<linearGradient id="paint4_linear_6_3040" x1="256.071" y1="263.052" x2="256.071" y2="366.862" gradientUnits="userSpaceOnUse">
<stop stop-color="#FDDCF9" stop-opacity="0"/>
<stop offset="1" stop-color="#FEE7E1"/>
</linearGradient>
<linearGradient id="paint5_linear_6_3040" x1="392.314" y1="193.092" x2="441.813" y2="142.428" gradientUnits="userSpaceOnUse">
<stop stop-color="#FF78C9"/>
<stop offset="0.73" stop-color="#FFF4E8"/>
</linearGradient>
<linearGradient id="paint6_linear_6_3040" x1="380.213" y1="222.69" x2="487.115" y2="203.286" gradientUnits="userSpaceOnUse">
<stop stop-color="#FF50D4"/>
<stop offset="0.494444" stop-color="#FFEEEA"/>
</linearGradient>
</defs>
</svg>
