<svg width="512" height="512" viewBox="0 0 512 512" fill="none" xmlns="http://www.w3.org/2000/svg">
<g clip-path="url(#clip0_47_114)">
<mask id="mask0_47_114" style="mask-type:alpha" maskUnits="userSpaceOnUse" x="34" y="34" width="444" height="447">
<path d="M59.2036 316.921C26.5064 283.995 26.5064 230.61 59.2036 197.684L196.797 59.1257C229.494 26.1991 282.506 26.1992 315.204 59.1257L452.797 197.684C485.494 230.61 485.494 283.995 452.797 316.921L315.204 455.479C282.506 488.406 229.494 488.406 196.797 455.479L59.2036 316.921Z" fill="#C960FF"/>
</mask>
<g mask="url(#mask0_47_114)">
<path d="M314.931 454.306C281.89 486.888 228.506 486.702 195.694 453.89L57.6175 315.813C24.8054 283.001 24.9907 229.989 58.0314 197.407L197.069 60.2988C230.11 27.7169 283.494 27.9035 316.306 60.7156L454.383 198.792C487.195 231.604 487.01 284.616 453.969 317.198L314.931 454.306Z" fill="#D990FF"/>
<path d="M314.931 454.306C281.89 486.888 228.506 486.702 195.694 453.89L57.6175 315.813C24.8054 283.001 24.9907 229.989 58.0314 197.407L197.069 60.2988C230.11 27.7169 283.494 27.9035 316.306 60.7156L454.383 198.792C487.195 231.604 487.01 284.616 453.969 317.198L314.931 454.306Z" fill="url(#paint0_linear_47_114)" fill-opacity="0.42"/>
<path d="M314.931 454.306C281.89 486.888 228.506 486.702 195.694 453.89L57.6175 315.813C24.8054 283.001 24.9907 229.989 58.0314 197.407L197.069 60.2988C230.11 27.7169 283.494 27.9035 316.306 60.7156L454.383 198.792C487.195 231.604 487.01 284.616 453.969 317.198L314.931 454.306Z" fill="url(#paint1_linear_47_114)" fill-opacity="0.69"/>
<g filter="url(#filter0_ii_47_114)">
<path fill-rule="evenodd" clip-rule="evenodd" d="M410.005 375.486L309.27 255.434L410.005 135.383L344.105 80.0867L261.475 178.562L244.766 178.562L162.135 80.0865L96.2359 135.383L196.971 255.434L96.2359 375.486L162.135 430.782L246.09 330.728L260.15 330.728L344.105 430.782L410.005 375.486Z" fill="#8C1EB3"/>
</g>
</g>
<path fill-rule="evenodd" clip-rule="evenodd" d="M299.658 314.819C299.658 339.882 278.813 350.546 253.12 350.546C227.428 350.546 206.583 337.7 206.583 314.819C206.583 298.782 199.016 287.467 190.749 275.106C180.8 260.23 169.838 243.839 169.838 215.879C169.838 169.875 207.116 132.597 253.12 132.597C299.125 132.597 336.403 169.875 336.403 215.879C336.403 247.598 324.277 265.527 313.957 280.785C306.312 292.088 299.658 301.926 299.658 314.819ZM273.23 268.223C283.798 261.533 290.778 249.802 290.778 236.374C290.778 224.837 285.591 214.463 277.35 207.579C273.808 204.588 273.234 211.765 272.592 219.795C272.048 226.6 271.454 234.017 268.964 236.374C263.195 241.804 243.223 241.61 237.26 236.374C234.425 233.856 233.438 225.607 232.591 218.525C231.758 211.563 231.061 205.729 228.874 207.579C220.681 214.463 215.446 224.837 215.446 236.374C215.446 249.754 222.427 261.533 232.994 268.223L232.994 315.972C232.994 324.019 240.411 327.558 253.112 327.558C265.813 327.558 273.23 324.747 273.23 315.972L273.23 268.223ZM253.111 378.272C269.689 378.272 283.117 372.358 283.117 359.076C283.117 352.7 281.094 353.275 275.076 354.985C270.434 356.305 263.413 358.3 253.111 358.3C242.788 358.3 235.761 356.177 231.119 354.775C225.121 352.963 223.104 352.354 223.104 359.076C223.104 372.358 236.532 378.272 253.111 378.272Z" fill="white"/>
</g>
<defs>
<filter id="filter0_ii_47_114" x="96.2359" y="72.0865" width="313.769" height="366.696" filterUnits="userSpaceOnUse" color-interpolation-filters="sRGB">
<feFlood flood-opacity="0" result="BackgroundImageFix"/>
<feBlend mode="normal" in="SourceGraphic" in2="BackgroundImageFix" result="shape"/>
<feColorMatrix in="SourceAlpha" type="matrix" values="0 0 0 0 0 0 0 0 0 0 0 0 0 0 0 0 0 0 127 0" result="hardAlpha"/>
<feOffset dy="8"/>
<feGaussianBlur stdDeviation="5"/>
<feComposite in2="hardAlpha" operator="arithmetic" k2="-1" k3="1"/>
<feColorMatrix type="matrix" values="0 0 0 0 0.384314 0 0 0 0 0.0627451 0 0 0 0 0.439216 0 0 0 1 0"/>
<feBlend mode="normal" in2="shape" result="effect1_innerShadow_47_114"/>
<feColorMatrix in="SourceAlpha" type="matrix" values="0 0 0 0 0 0 0 0 0 0 0 0 0 0 0 0 0 0 127 0" result="hardAlpha"/>
<feOffset dy="-8"/>
<feGaussianBlur stdDeviation="10"/>
<feComposite in2="hardAlpha" operator="arithmetic" k2="-1" k3="1"/>
<feColorMatrix type="matrix" values="0 0 0 0 0.383698 0 0 0 0 0.0608855 0 0 0 0 0.4375 0 0 0 1 0"/>
<feBlend mode="normal" in2="effect1_innerShadow_47_114" result="effect2_innerShadow_47_114"/>
</filter>
<linearGradient id="paint0_linear_47_114" x1="458.874" y1="190.076" x2="181.131" y2="445.518" gradientUnits="userSpaceOnUse">
<stop offset="0.185103" stop-color="#E74AA8"/>
<stop offset="0.327556" stop-color="#D440A3"/>
<stop offset="0.856646" stop-color="#C30CD3"/>
</linearGradient>
<linearGradient id="paint1_linear_47_114" x1="363.863" y1="112.33" x2="111.14" y2="438.647" gradientUnits="userSpaceOnUse">
<stop stop-color="#FFCF54"/>
<stop offset="0.315521" stop-color="#F09E62" stop-opacity="0.612199"/>
<stop offset="1" stop-color="#DB72FF" stop-opacity="0"/>
</linearGradient>
<clipPath id="clip0_47_114">
<rect width="512" height="512" fill="white"/>
</clipPath>
</defs>
</svg>
