<svg width="512" height="512" viewBox="0 0 512 512" fill="none" xmlns="http://www.w3.org/2000/svg">
<path fill-rule="evenodd" clip-rule="evenodd" d="M287.707 89.191C256.629 58.1129 206.242 58.1129 175.164 89.191L88.7564 175.598C57.6784 206.676 57.6783 257.064 88.7564 288.142L175.164 374.549C206.242 405.627 256.629 405.627 287.707 374.549L374.115 288.142C405.193 257.064 405.193 206.676 374.115 175.598L287.707 89.191ZM268.09 283.73C268.09 303.176 251.88 311.451 231.899 311.451C211.919 311.451 195.709 301.483 195.709 283.73C195.709 271.286 189.824 262.507 183.395 252.916C175.658 241.373 167.134 228.656 167.134 206.961C167.134 171.267 196.124 142.342 231.899 142.342C267.675 142.342 296.665 171.267 296.665 206.961C296.665 231.572 287.235 245.483 279.21 257.323C273.265 266.093 268.09 273.726 268.09 283.73ZM254.816 318.649C254.816 328.811 244.338 333.335 231.401 333.335C218.464 333.335 207.986 328.811 207.986 318.649C207.986 313.507 209.56 313.973 214.24 315.359C217.863 316.432 223.346 318.056 231.401 318.056C239.441 318.056 244.919 316.53 248.542 315.52C253.237 314.212 254.816 313.772 254.816 318.649Z" fill="url(#paint0_radial_187_89)"/>
<path fill-rule="evenodd" clip-rule="evenodd" d="M287.707 89.191C256.629 58.1129 206.242 58.1129 175.164 89.191L88.7564 175.598C57.6784 206.676 57.6783 257.064 88.7564 288.142L175.164 374.549C206.242 405.627 256.629 405.627 287.707 374.549L374.115 288.142C405.193 257.064 405.193 206.676 374.115 175.598L287.707 89.191ZM268.09 283.73C268.09 303.176 251.88 311.451 231.899 311.451C211.919 311.451 195.709 301.483 195.709 283.73C195.709 271.286 189.824 262.507 183.395 252.916C175.658 241.373 167.134 228.656 167.134 206.961C167.134 171.267 196.124 142.342 231.899 142.342C267.675 142.342 296.665 171.267 296.665 206.961C296.665 231.572 287.235 245.483 279.21 257.323C273.265 266.093 268.09 273.726 268.09 283.73ZM254.816 318.649C254.816 328.811 244.338 333.335 231.401 333.335C218.464 333.335 207.986 328.811 207.986 318.649C207.986 313.507 209.56 313.973 214.24 315.359C217.863 316.432 223.346 318.056 231.401 318.056C239.441 318.056 244.919 316.53 248.542 315.52C253.237 314.212 254.816 313.772 254.816 318.649Z" fill="url(#paint1_angular_187_89)" style="mix-blend-mode:difference"/>
<path fill-rule="evenodd" clip-rule="evenodd" d="M287.707 89.191C256.629 58.1129 206.242 58.1129 175.164 89.191L88.7564 175.598C57.6784 206.676 57.6783 257.064 88.7564 288.142L175.164 374.549C206.242 405.627 256.629 405.627 287.707 374.549L374.115 288.142C405.193 257.064 405.193 206.676 374.115 175.598L287.707 89.191ZM268.09 283.73C268.09 303.176 251.88 311.451 231.899 311.451C211.919 311.451 195.709 301.483 195.709 283.73C195.709 271.286 189.824 262.507 183.395 252.916C175.658 241.373 167.134 228.656 167.134 206.961C167.134 171.267 196.124 142.342 231.899 142.342C267.675 142.342 296.665 171.267 296.665 206.961C296.665 231.572 287.235 245.483 279.21 257.323C273.265 266.093 268.09 273.726 268.09 283.73ZM254.816 318.649C254.816 328.811 244.338 333.335 231.401 333.335C218.464 333.335 207.986 328.811 207.986 318.649C207.986 313.507 209.56 313.973 214.24 315.359C217.863 316.432 223.346 318.056 231.401 318.056C239.441 318.056 244.919 316.53 248.542 315.52C253.237 314.212 254.816 313.772 254.816 318.649Z" fill="url(#paint2_angular_187_89)" style="mix-blend-mode:screen"/>
<path d="M247.769 247.919C256.348 242.834 262.015 233.916 262.015 223.709C262.015 214.939 257.804 207.053 251.114 201.82C245.802 197.619 248.714 219.803 244.306 223.709C239.623 227.836 223.41 227.689 218.57 223.709C214.005 219.913 215.343 198.983 211.762 201.82C205.111 207.053 200.861 214.939 200.861 223.709C200.861 233.879 206.528 242.834 215.107 247.919V284.216C215.107 290.333 221.128 293.023 231.438 293.023C241.748 293.023 247.769 290.886 247.769 284.216V247.919Z" fill="url(#paint3_radial_187_89)"/>
<path d="M247.769 247.919C256.348 242.834 262.015 233.916 262.015 223.709C262.015 214.939 257.804 207.053 251.114 201.82C245.802 197.619 248.714 219.803 244.306 223.709C239.623 227.836 223.41 227.689 218.57 223.709C214.005 219.913 215.343 198.983 211.762 201.82C205.111 207.053 200.861 214.939 200.861 223.709C200.861 233.879 206.528 242.834 215.107 247.919V284.216C215.107 290.333 221.128 293.023 231.438 293.023C241.748 293.023 247.769 290.886 247.769 284.216V247.919Z" fill="url(#paint4_angular_187_89)" style="mix-blend-mode:difference"/>
<path d="M247.769 247.919C256.348 242.834 262.015 233.916 262.015 223.709C262.015 214.939 257.804 207.053 251.114 201.82C245.802 197.619 248.714 219.803 244.306 223.709C239.623 227.836 223.41 227.689 218.57 223.709C214.005 219.913 215.343 198.983 211.762 201.82C205.111 207.053 200.861 214.939 200.861 223.709C200.861 233.879 206.528 242.834 215.107 247.919V284.216C215.107 290.333 221.128 293.023 231.438 293.023C241.748 293.023 247.769 290.886 247.769 284.216V247.919Z" fill="url(#paint5_angular_187_89)" style="mix-blend-mode:screen"/>
<mask id="mask0_187_89" style="mask-type:alpha" maskUnits="userSpaceOnUse" x="65" y="65" width="333" height="333">
<path fill-rule="evenodd" clip-rule="evenodd" d="M287.707 89.1909C256.629 58.1128 206.242 58.1128 175.164 89.1909L88.7563 175.598C57.6782 206.676 57.6782 257.064 88.7563 288.142L175.164 374.549C206.242 405.627 256.629 405.627 287.707 374.549L374.115 288.142C405.193 257.064 405.193 206.676 374.115 175.598L287.707 89.1909ZM268.09 283.73C268.09 303.176 251.88 311.45 231.899 311.45C211.919 311.45 195.709 301.483 195.709 283.73C195.709 271.286 189.824 262.507 183.395 252.916C175.658 241.373 167.133 228.656 167.133 206.961C167.133 171.267 196.124 142.342 231.899 142.342C267.675 142.342 296.665 171.267 296.665 206.961C296.665 231.572 287.235 245.483 279.21 257.322C273.264 266.093 268.09 273.726 268.09 283.73ZM254.816 318.649C254.816 328.811 244.338 333.335 231.401 333.335C218.464 333.335 207.985 328.811 207.985 318.649C207.985 313.507 209.56 313.973 214.24 315.359C217.862 316.432 223.346 318.056 231.401 318.056C239.44 318.056 244.919 316.529 248.541 315.52C253.237 314.212 254.816 313.772 254.816 318.649Z" fill="url(#paint6_radial_187_89)"/>
<path fill-rule="evenodd" clip-rule="evenodd" d="M287.707 89.1909C256.629 58.1128 206.242 58.1128 175.164 89.1909L88.7563 175.598C57.6782 206.676 57.6782 257.064 88.7563 288.142L175.164 374.549C206.242 405.627 256.629 405.627 287.707 374.549L374.115 288.142C405.193 257.064 405.193 206.676 374.115 175.598L287.707 89.1909ZM268.09 283.73C268.09 303.176 251.88 311.45 231.899 311.45C211.919 311.45 195.709 301.483 195.709 283.73C195.709 271.286 189.824 262.507 183.395 252.916C175.658 241.373 167.133 228.656 167.133 206.961C167.133 171.267 196.124 142.342 231.899 142.342C267.675 142.342 296.665 171.267 296.665 206.961C296.665 231.572 287.235 245.483 279.21 257.322C273.264 266.093 268.09 273.726 268.09 283.73ZM254.816 318.649C254.816 328.811 244.338 333.335 231.401 333.335C218.464 333.335 207.985 328.811 207.985 318.649C207.985 313.507 209.56 313.973 214.24 315.359C217.862 316.432 223.346 318.056 231.401 318.056C239.44 318.056 244.919 316.529 248.541 315.52C253.237 314.212 254.816 313.772 254.816 318.649Z" fill="url(#paint7_angular_187_89)"/>
<path fill-rule="evenodd" clip-rule="evenodd" d="M287.707 89.1909C256.629 58.1128 206.242 58.1128 175.164 89.1909L88.7563 175.598C57.6782 206.676 57.6782 257.064 88.7563 288.142L175.164 374.549C206.242 405.627 256.629 405.627 287.707 374.549L374.115 288.142C405.193 257.064 405.193 206.676 374.115 175.598L287.707 89.1909ZM268.09 283.73C268.09 303.176 251.88 311.45 231.899 311.45C211.919 311.45 195.709 301.483 195.709 283.73C195.709 271.286 189.824 262.507 183.395 252.916C175.658 241.373 167.133 228.656 167.133 206.961C167.133 171.267 196.124 142.342 231.899 142.342C267.675 142.342 296.665 171.267 296.665 206.961C296.665 231.572 287.235 245.483 279.21 257.322C273.264 266.093 268.09 273.726 268.09 283.73ZM254.816 318.649C254.816 328.811 244.338 333.335 231.401 333.335C218.464 333.335 207.985 328.811 207.985 318.649C207.985 313.507 209.56 313.973 214.24 315.359C217.862 316.432 223.346 318.056 231.401 318.056C239.44 318.056 244.919 316.529 248.541 315.52C253.237 314.212 254.816 313.772 254.816 318.649Z" fill="url(#paint8_angular_187_89)"/>
<path d="M247.769 247.919C256.348 242.834 262.015 233.916 262.015 223.709C262.015 214.939 257.804 207.053 251.114 201.82C245.801 197.619 248.714 219.803 244.306 223.709C239.623 227.836 223.41 227.689 218.57 223.709C214.005 219.913 215.343 198.983 211.762 201.82C205.111 207.053 200.861 214.939 200.861 223.709C200.861 233.879 206.528 242.834 215.107 247.919V284.216C215.107 290.333 221.128 293.023 231.438 293.023C241.748 293.023 247.769 290.886 247.769 284.216V247.919Z" fill="url(#paint9_radial_187_89)"/>
<path d="M247.769 247.919C256.348 242.834 262.015 233.916 262.015 223.709C262.015 214.939 257.804 207.053 251.114 201.82C245.801 197.619 248.714 219.803 244.306 223.709C239.623 227.836 223.41 227.689 218.57 223.709C214.005 219.913 215.343 198.983 211.762 201.82C205.111 207.053 200.861 214.939 200.861 223.709C200.861 233.879 206.528 242.834 215.107 247.919V284.216C215.107 290.333 221.128 293.023 231.438 293.023C241.748 293.023 247.769 290.886 247.769 284.216V247.919Z" fill="url(#paint10_angular_187_89)"/>
<path d="M247.769 247.919C256.348 242.834 262.015 233.916 262.015 223.709C262.015 214.939 257.804 207.053 251.114 201.82C245.801 197.619 248.714 219.803 244.306 223.709C239.623 227.836 223.41 227.689 218.57 223.709C214.005 219.913 215.343 198.983 211.762 201.82C205.111 207.053 200.861 214.939 200.861 223.709C200.861 233.879 206.528 242.834 215.107 247.919V284.216C215.107 290.333 221.128 293.023 231.438 293.023C241.748 293.023 247.769 290.886 247.769 284.216V247.919Z" fill="url(#paint11_angular_187_89)"/>
</mask>
<g mask="url(#mask0_187_89)">
<g style="mix-blend-mode:overlay">
<g filter="url(#filter0_f_187_89)">
<path d="M456.489 175.005C490.285 126.391 472.574 79.3995 509.111 32.812C582.881 -61.2509 604.432 266.824 509.111 338.947C437.009 393.502 273.135 429.269 277.611 338.947C280.896 272.663 361.421 277.202 407.704 229.652C427.658 209.153 440.159 198.495 456.489 175.005Z" fill="#C960FF"/>
</g>
<g filter="url(#filter1_f_187_89)">
<path d="M6.45659 214.023C-31.6583 195.042 -27.428 143.914 -69.1732 135.508C-141.067 121.031 -102.9 258.121 -69.1732 323.214C-4.04948 448.903 331.207 459.634 293.448 323.214C277.502 265.603 254.372 218.425 196.079 205.076C153.76 195.385 131.341 231.55 87.9321 230.822C55.4486 230.277 35.5352 228.504 6.45659 214.023Z" fill="#942EFF"/>
</g>
<g filter="url(#filter2_f_187_89)">
<path d="M6.45659 231.618C-31.6583 212.637 -27.428 161.51 -69.1732 153.103C-141.067 138.626 -102.9 275.716 -69.1732 340.809C-4.04948 466.498 331.207 477.229 293.448 340.809C277.502 283.198 254.372 236.02 196.079 222.671C153.76 212.98 131.341 249.145 87.9321 248.417C55.4486 247.872 35.5352 246.1 6.45659 231.618Z" fill="#FF00F5"/>
</g>
<g filter="url(#filter3_f_187_89)">
<ellipse cx="297.691" cy="318.55" rx="179.813" ry="119.303" fill="#FF4545"/>
</g>
<g filter="url(#filter4_f_187_89)">
<ellipse cx="261.858" cy="318.55" rx="137.971" ry="91.8379" fill="#FF50D4"/>
</g>
<g filter="url(#filter5_f_187_89)">
<circle cx="434.805" cy="281.429" r="64.5869" fill="#FF5A78"/>
</g>
</g>
</g>
<path d="M365.25 379.5C367.75 392.667 375.417 399.25 388.25 399.25C397.083 399.25 403.333 395.333 407 387.5C410.667 379.667 412.5 366.917 412.5 349.25C408.833 354.417 403.833 358.417 397.5 361.25C391.167 364.083 384.083 365.5 376.25 365.5C365.583 365.5 356.083 363.333 347.75 359C339.417 354.5 332.833 347.917 328 339.25C323.333 330.417 321 319.75 321 307.25C321 294.917 323.5 284.167 328.5 275C333.667 265.833 340.917 258.75 350.25 253.75C359.75 248.75 370.917 246.25 383.75 246.25C408.417 246.25 425.667 253.917 435.5 269.25C445.333 284.583 450.25 307.167 450.25 337C450.25 358.667 448.25 376.583 444.25 390.75C440.417 404.75 433.833 415.417 424.5 422.75C415.333 430.083 402.75 433.75 386.75 433.75C374.083 433.75 363.25 431.25 354.25 426.25C345.417 421.25 338.583 414.667 333.75 406.5C329.083 398.333 326.417 389.333 325.75 379.5H365.25ZM386 331.75C393 331.75 398.583 329.667 402.75 325.5C406.917 321.167 409 315.333 409 308C409 300 406.833 293.833 402.5 289.5C398.167 285.167 392.333 283 385 283C377.667 283 371.833 285.25 367.5 289.75C363.333 294.083 361.25 300.083 361.25 307.75C361.25 314.917 363.333 320.75 367.5 325.25C371.833 329.583 378 331.75 386 331.75Z" fill="#3F0F47"/>
<defs>
<filter id="filter0_f_187_89" x="-72.4789" y="-334" width="995.254" height="1078.08" filterUnits="userSpaceOnUse" color-interpolation-filters="sRGB">
<feFlood flood-opacity="0" result="BackgroundImageFix"/>
<feBlend mode="normal" in="SourceGraphic" in2="BackgroundImageFix" result="shape"/>
<feGaussianBlur stdDeviation="175" result="effect1_foregroundBlur_187_89"/>
</filter>
<filter id="filter1_f_187_89" x="-460" y="-215.555" width="1106.4" height="987.101" filterUnits="userSpaceOnUse" color-interpolation-filters="sRGB">
<feFlood flood-opacity="0" result="BackgroundImageFix"/>
<feBlend mode="normal" in="SourceGraphic" in2="BackgroundImageFix" result="shape"/>
<feGaussianBlur stdDeviation="175" result="effect1_foregroundBlur_187_89"/>
</filter>
<filter id="filter2_f_187_89" x="-460" y="-197.96" width="1106.4" height="987.101" filterUnits="userSpaceOnUse" color-interpolation-filters="sRGB">
<feFlood flood-opacity="0" result="BackgroundImageFix"/>
<feBlend mode="normal" in="SourceGraphic" in2="BackgroundImageFix" result="shape"/>
<feGaussianBlur stdDeviation="175" result="effect1_foregroundBlur_187_89"/>
</filter>
<filter id="filter3_f_187_89" x="-232.122" y="-150.753" width="1059.63" height="938.607" filterUnits="userSpaceOnUse" color-interpolation-filters="sRGB">
<feFlood flood-opacity="0" result="BackgroundImageFix"/>
<feBlend mode="normal" in="SourceGraphic" in2="BackgroundImageFix" result="shape"/>
<feGaussianBlur stdDeviation="175" result="effect1_foregroundBlur_187_89"/>
</filter>
<filter id="filter4_f_187_89" x="-26.1134" y="76.7122" width="575.943" height="483.676" filterUnits="userSpaceOnUse" color-interpolation-filters="sRGB">
<feFlood flood-opacity="0" result="BackgroundImageFix"/>
<feBlend mode="normal" in="SourceGraphic" in2="BackgroundImageFix" result="shape"/>
<feGaussianBlur stdDeviation="75" result="effect1_foregroundBlur_187_89"/>
</filter>
<filter id="filter5_f_187_89" x="120.218" y="-33.1583" width="629.174" height="629.174" filterUnits="userSpaceOnUse" color-interpolation-filters="sRGB">
<feFlood flood-opacity="0" result="BackgroundImageFix"/>
<feBlend mode="normal" in="SourceGraphic" in2="BackgroundImageFix" result="shape"/>
<feGaussianBlur stdDeviation="125" result="effect1_foregroundBlur_187_89"/>
</filter>
<radialGradient id="paint0_radial_187_89" cx="0" cy="0" r="1" gradientUnits="userSpaceOnUse" gradientTransform="translate(98.9944 159.637) rotate(29.6941) scale(304.924 307.024)">
<stop offset="0.0833333" stop-color="#7E6A7E"/>
<stop offset="0.375" stop-color="#D5D5D5"/>
<stop offset="0.634538" stop-color="#75888A"/>
<stop offset="1" stop-color="#896753"/>
</radialGradient>
<radialGradient id="paint1_angular_187_89" cx="0" cy="0" r="1" gradientUnits="userSpaceOnUse" gradientTransform="translate(231.436 231.87) rotate(90) scale(165.988)">
<stop offset="0.0833333" stop-color="white"/>
<stop offset="0.265625"/>
<stop offset="0.46875" stop-color="white"/>
<stop offset="0.635417"/>
<stop offset="0.791667" stop-color="white"/>
<stop offset="1"/>
</radialGradient>
<radialGradient id="paint2_angular_187_89" cx="0" cy="0" r="1" gradientUnits="userSpaceOnUse" gradientTransform="translate(231.436 231.87) rotate(90) scale(165.988)">
<stop offset="0.046875" stop-color="white" stop-opacity="0.72"/>
<stop offset="0.244792"/>
<stop offset="0.421875" stop-color="white" stop-opacity="0.72"/>
<stop offset="0.625"/>
<stop offset="0.802083" stop-color="white" stop-opacity="0.72"/>
<stop offset="1"/>
</radialGradient>
<radialGradient id="paint3_radial_187_89" cx="0" cy="0" r="1" gradientUnits="userSpaceOnUse" gradientTransform="translate(207.041 227.199) rotate(40.543) scale(64.2097 74.2137)">
<stop offset="0.0833333" stop-color="#7E6A7E"/>
<stop offset="0.375" stop-color="#D5D5D5"/>
<stop offset="0.634538" stop-color="#75888A"/>
<stop offset="1" stop-color="#896753"/>
</radialGradient>
<radialGradient id="paint4_angular_187_89" cx="0" cy="0" r="1" gradientUnits="userSpaceOnUse" gradientTransform="translate(231.438 247.158) rotate(90) scale(45.865 30.5767)">
<stop offset="0.0833333" stop-color="white"/>
<stop offset="0.265625"/>
<stop offset="0.46875" stop-color="white"/>
<stop offset="0.635417"/>
<stop offset="0.791667" stop-color="white"/>
<stop offset="1"/>
</radialGradient>
<radialGradient id="paint5_angular_187_89" cx="0" cy="0" r="1" gradientUnits="userSpaceOnUse" gradientTransform="translate(231.438 247.158) rotate(90) scale(45.865 30.5767)">
<stop offset="0.046875" stop-color="white" stop-opacity="0.72"/>
<stop offset="0.244792"/>
<stop offset="0.421875" stop-color="white" stop-opacity="0.72"/>
<stop offset="0.625"/>
<stop offset="0.802083" stop-color="white" stop-opacity="0.72"/>
<stop offset="1"/>
</radialGradient>
<radialGradient id="paint6_radial_187_89" cx="0" cy="0" r="1" gradientUnits="userSpaceOnUse" gradientTransform="translate(98.9943 159.637) rotate(29.6941) scale(304.924 307.024)">
<stop offset="0.0833333" stop-color="#7E6A7E"/>
<stop offset="0.375" stop-color="#D5D5D5"/>
<stop offset="0.634538" stop-color="#75888A"/>
<stop offset="1" stop-color="#896753"/>
</radialGradient>
<radialGradient id="paint7_angular_187_89" cx="0" cy="0" r="1" gradientUnits="userSpaceOnUse" gradientTransform="translate(231.435 231.87) rotate(90) scale(165.988)">
<stop offset="0.0833333" stop-color="white"/>
<stop offset="0.265625"/>
<stop offset="0.46875" stop-color="white"/>
<stop offset="0.635417"/>
<stop offset="0.791667" stop-color="white"/>
<stop offset="1"/>
</radialGradient>
<radialGradient id="paint8_angular_187_89" cx="0" cy="0" r="1" gradientUnits="userSpaceOnUse" gradientTransform="translate(231.435 231.87) rotate(90) scale(165.988)">
<stop offset="0.046875" stop-color="white" stop-opacity="0.72"/>
<stop offset="0.244792"/>
<stop offset="0.421875" stop-color="white" stop-opacity="0.72"/>
<stop offset="0.625"/>
<stop offset="0.802083" stop-color="white" stop-opacity="0.72"/>
<stop offset="1"/>
</radialGradient>
<radialGradient id="paint9_radial_187_89" cx="0" cy="0" r="1" gradientUnits="userSpaceOnUse" gradientTransform="translate(207.041 227.199) rotate(40.543) scale(64.2097 74.2137)">
<stop offset="0.0833333" stop-color="#7E6A7E"/>
<stop offset="0.375" stop-color="#D5D5D5"/>
<stop offset="0.634538" stop-color="#75888A"/>
<stop offset="1" stop-color="#896753"/>
</radialGradient>
<radialGradient id="paint10_angular_187_89" cx="0" cy="0" r="1" gradientUnits="userSpaceOnUse" gradientTransform="translate(231.438 247.158) rotate(90) scale(45.865 30.5767)">
<stop offset="0.0833333" stop-color="white"/>
<stop offset="0.265625"/>
<stop offset="0.46875" stop-color="white"/>
<stop offset="0.635417"/>
<stop offset="0.791667" stop-color="white"/>
<stop offset="1"/>
</radialGradient>
<radialGradient id="paint11_angular_187_89" cx="0" cy="0" r="1" gradientUnits="userSpaceOnUse" gradientTransform="translate(231.438 247.158) rotate(90) scale(45.865 30.5767)">
<stop offset="0.046875" stop-color="white" stop-opacity="0.72"/>
<stop offset="0.244792"/>
<stop offset="0.421875" stop-color="white" stop-opacity="0.72"/>
<stop offset="0.625"/>
<stop offset="0.802083" stop-color="white" stop-opacity="0.72"/>
<stop offset="1"/>
</radialGradient>
</defs>
</svg>
