<svg width="1703" height="1152" viewBox="0 0 1703 1152" fill="none" xmlns="http://www.w3.org/2000/svg">
<g style="mix-blend-mode:overlay">
<path d="M1552.05 686.423C1661.3 792.463 1633.1 876.902 1602.01 932L1575.37 937.45C1568.57 943.21 1562.15 947.426 1558.01 941C1478.82 817.941 1362.03 940.328 1277.61 817.464C1055.53 494.221 854.431 945.246 475.653 943.929C331.615 943.428 138.158 816.97 58.2367 768.474L117.838 67.99L756.836 148.102C807.561 236.543 943.532 433.914 1081.61 515.864C1254.21 618.302 1415.47 553.873 1552.05 686.423Z" fill="url(#paint0_linear_187_13)"/>
</g>
<g style="mix-blend-mode:overlay">
<path d="M1542.49 831.185C1558.65 854.271 1576.33 901.225 1585.01 928.667L1528.01 953.407C1484.59 953.407 1461.8 923.248 1419.53 928.667C1369.65 935.061 1222.49 868.185 1169.01 875C1115.53 881.815 1064.65 920.501 1042.93 953.407C1007.43 1007.21 965.074 1052.52 906.787 1082C852.424 1109.49 748.878 1134.99 721.453 1056.37C703.119 1003.81 719.676 941.196 719.676 887.037C719.676 841.544 721.356 770.075 674.342 743.63C621.037 713.646 565.366 709.546 506.639 700.074C453.835 691.557 311.958 696.612 305.453 617.111C302.011 575.041 343.539 531.582 377.898 515.63C420.269 495.957 486.849 514.262 526.49 532.667C586.001 560.296 644.072 602 712.12 602C764.097 602 938.958 557.067 869.009 476.074C832.681 434.011 761.902 420.634 713.157 400.815C671.734 383.972 651.943 366.938 627.824 331.333C609.207 303.852 614.709 269.464 631.527 243.185C650.47 213.588 665.14 204.813 698.342 199.333C741.746 192.17 775.801 191.185 818.787 203.333C865.016 216.398 910.653 231.567 957.602 242C1012.73 254.25 1066.16 250.888 1119.38 232.815C1156.73 220.131 1185.8 192.33 1222.79 179.333C1317.37 146.102 1476.33 138.62 1515.53 256.222C1532.1 305.937 1503.31 354.067 1486.49 399.037C1461.04 467.1 1442.42 553.908 1448.27 627.778C1452.21 677.601 1476.78 728.771 1503.68 770.148C1516.83 790.378 1528.64 811.392 1542.49 831.185Z" fill="url(#paint1_linear_187_13)"/>
</g>
<g opacity="0.15">
<g style="mix-blend-mode:overlay">
<path d="M1552.05 686.423C1661.3 792.463 1633.1 876.902 1602.01 932L1575.37 937.45C1568.57 943.21 1562.15 947.426 1558.01 941C1478.82 817.941 1362.03 940.328 1277.61 817.464C1055.53 494.221 854.431 945.246 475.653 943.929C331.615 943.428 138.158 816.97 58.2367 768.474L117.838 67.99L756.836 148.102C807.561 236.543 943.532 433.914 1081.61 515.864C1254.21 618.302 1415.47 553.873 1552.05 686.423Z" fill="url(#paint2_linear_187_13)"/>
</g>
<g style="mix-blend-mode:overlay">
<path d="M1542.49 831.185C1558.65 854.271 1576.33 901.225 1585.01 928.667L1528.01 953.407C1484.59 953.407 1461.8 923.248 1419.53 928.667C1369.65 935.061 1222.49 868.185 1169.01 875C1115.53 881.815 1064.65 920.501 1042.93 953.407C1007.43 1007.21 965.074 1052.52 906.787 1082C852.424 1109.49 748.878 1134.99 721.453 1056.37C703.119 1003.81 719.676 941.196 719.676 887.037C719.676 841.544 721.356 770.075 674.342 743.63C621.037 713.646 565.366 709.546 506.639 700.074C453.835 691.557 311.958 696.612 305.453 617.111C302.011 575.041 343.539 531.582 377.898 515.63C420.269 495.957 486.849 514.262 526.49 532.667C586.001 560.296 644.072 602 712.12 602C764.097 602 938.958 557.067 869.009 476.074C832.681 434.011 761.902 420.634 713.157 400.815C671.734 383.972 651.943 366.938 627.824 331.333C609.207 303.852 614.709 269.464 631.527 243.185C650.47 213.588 665.14 204.813 698.342 199.333C741.746 192.17 775.801 191.185 818.787 203.333C865.016 216.398 910.653 231.567 957.602 242C1012.73 254.25 1066.16 250.888 1119.38 232.815C1156.73 220.131 1185.8 192.33 1222.79 179.333C1317.37 146.102 1476.33 138.62 1515.53 256.222C1532.1 305.937 1503.31 354.067 1486.49 399.037C1461.04 467.1 1442.42 553.908 1448.27 627.778C1452.21 677.601 1476.78 728.771 1503.68 770.148C1516.83 790.378 1528.64 811.392 1542.49 831.185Z" fill="url(#paint3_linear_187_13)"/>
</g>
</g>
<path d="M1547.4 895.05C1545.03 866.806 1559.13 781.667 1519.75 788.649L1497.31 839.815C1504.12 849.436 1500.37 879.19 1501.33 900.133C1502.54 926.311 1501.47 943.905 1513.7 989.367L1543.42 970.19C1542.32 947.611 1549.29 917.646 1547.4 895.05Z" fill="#FFDFEB"/>
<path d="M1587.11 913.067C1568.68 910.541 1522.76 936.344 1521.29 953.396C1519.82 970.448 1506.52 995.317 1536.34 984.391C1566.16 973.464 1625.42 947.467 1625.42 947.467C1626.11 942.471 1626.41 931.387 1622.12 927.024C1616.76 921.571 1599.4 914.752 1587.11 913.067Z" fill="url(#paint4_linear_187_13)"/>
<path d="M1370.7 781.086C1386.68 778.027 1405.24 771.093 1433.05 740.124L1467.63 754.981C1472.96 760.844 1477.22 769.09 1495.61 774.07C1517.15 779.907 1519.28 784.6 1532.38 793.011C1545.48 801.422 1546.07 818.367 1543.52 840.924C1541.47 858.97 1533.23 858.602 1526.73 864.337L1451.9 819.266L1379.01 873.227C1370.92 866.473 1354.28 849.523 1352.49 835.759C1350.25 818.555 1354.72 784.145 1370.7 781.086Z" fill="#FFDFEB"/>
<path d="M1550.22 833.516C1546.09 801.648 1541.77 785.764 1503.48 774.233C1503.95 798.707 1504.7 851.893 1501.72 888.926C1511.33 881.694 1542.46 869.646 1553.11 896.718C1553.53 886.274 1553.53 859.011 1550.22 833.516Z" fill="#5B1D61"/>
<path d="M1529.3 841.228C1530.25 844.961 1532.89 858.006 1535.82 880.32H1529.3V841.228Z" fill="#211A4B"/>
<path d="M1552.95 645.948C1553.86 659.701 1548.62 661.958 1547.82 679.577C1546.87 700.649 1554.21 704.024 1549.15 716.393C1545.86 724.617 1540.56 728.42 1541.22 736.86C1541.73 743.184 1545.01 744.83 1545.17 749.98C1545.33 755.13 1542.67 761.788 1529.21 770.71C1530.7 769.341 1531.89 767.683 1532.71 765.837C1533.54 763.992 1533.98 761.998 1534.01 759.977C1533.37 751.453 1521.73 749.915 1519.87 741.186C1518.02 732.458 1528.69 727.965 1529.4 717.793C1529.81 711.713 1526.73 702.615 1509.12 690.484L1542.99 617.577C1548.68 626.029 1552.11 635.796 1552.95 645.948Z" fill="#4B1483"/>
<ellipse cx="1458.83" cy="630.274" rx="84.9567" ry="81.1296" transform="rotate(-8.00973 1458.83 630.274)" fill="#FFDFEB"/>
<path d="M1425.95 747.762C1438.7 731.044 1437.6 724.347 1438.7 697.514L1487.84 721.445C1482.22 735.274 1471.47 765.343 1473.4 774.987C1475.33 784.63 1474.81 787.284 1474.31 787.405L1387.98 774.169C1392.56 767.041 1413.72 763.813 1425.95 747.762Z" fill="url(#paint5_linear_187_13)"/>
<path d="M1527.25 709.393C1536.87 687.201 1525.78 686.548 1545.21 634.523L1388.52 656.572C1389.73 665.193 1390.68 671.957 1394.4 678.894C1400.1 689.542 1417.94 715.579 1430.86 725.059C1441.2 732.644 1464.64 745.186 1478.01 748.23C1493.27 743.305 1520.38 725.247 1527.25 709.393Z" fill="#FFDFEB"/>
<path d="M1356.55 897.668C1359.65 832.038 1401.67 780.724 1443.14 761.211C1482.82 780.222 1519.62 835.399 1524.61 885.74C1529.6 936.081 1530.12 995.832 1443.6 1016.91C1370.21 1034.78 1353.03 972.215 1356.55 897.668Z" fill="#FFDFEB"/>
<path d="M1532.59 878.447C1532.01 845.856 1526.39 800.58 1515.13 778.344C1512.35 776.219 1502.63 773.497 1489.72 769.92C1500.92 774.431 1500.64 818.504 1477.79 819.444C1432.25 821.319 1392.67 767.242 1403.68 763.995C1402.04 764.367 1380.62 764.003 1354.72 784.981C1377.62 785.092 1401.71 806.433 1405.15 835.464C1407.9 858.69 1393.23 892.817 1382.28 904.722L1361.06 819.444C1355.99 828.43 1345.86 856.202 1345.86 895.41C1345.86 944.42 1361.23 963.35 1356.81 1006.97C1353.29 1041.86 1339.81 1092.32 1338.67 1097.87C1336.48 1108.52 1391.7 1109.09 1469.87 1109.09C1511.7 1109.09 1549.37 1108.27 1548.15 1101.21C1546.43 1091.3 1538.31 1026.52 1537.3 1007.15C1536.05 982.94 1533.17 911.038 1532.59 878.447Z" fill="#5B1D61"/>
<path d="M1428.56 707.056C1433.22 713.11 1449.65 729.841 1478.01 748.326C1468.27 745.748 1456.68 740.676 1445.74 734.76C1434.77 728.827 1419.93 718.661 1408.43 700.545C1401.77 690.052 1396.16 678.65 1398 679.215L1406.36 654.37L1428.56 707.056Z" fill="#F2C9C9"/>
<path d="M1548.31 621.765C1549.69 633.439 1544.37 652.743 1541.52 664.1C1538.36 625.982 1522.03 611.981 1500.39 597.849C1460.07 607.64 1428.1 621.645 1405.92 666.467C1405.92 666.467 1403.16 705.502 1389.29 683.022C1375.42 660.541 1365.46 653.295 1377.56 600.03C1389.66 546.765 1467.02 531.038 1506.28 553.204C1545.53 575.37 1547.46 614.911 1548.31 621.765Z" fill="#4B1483"/>
<path d="M1429.9 676.589C1427.24 659.848 1426.55 653.737 1452.79 612.768C1437.21 622.873 1405.72 646.067 1404.4 658.006C1402.75 672.93 1416.21 688.132 1416.13 700.694C1416.05 713.257 1406.24 714.435 1408.37 731.962C1410.08 745.984 1428.55 760.574 1437.57 766.117C1433.95 759.872 1426.12 745.25 1423.77 736.712C1420.84 726.04 1427.91 720.684 1436.27 708.496C1444.63 696.308 1432.56 693.33 1429.9 676.589Z" fill="#4B1483"/>
<path d="M1472.27 554.416C1491.5 565.667 1496.78 584.452 1499.98 597.699C1488.51 600.072 1466.6 604.698 1455.27 614.395C1443.94 624.092 1434.57 640.513 1433.24 646.238L1405.23 689.542C1396.75 681.277 1380.13 655.215 1381.58 617.086C1383.02 578.958 1421.77 553.886 1440.97 546.116C1443.78 545.496 1457.5 545.771 1472.27 554.416Z" fill="url(#paint6_linear_187_13)"/>
<path d="M1388.81 617.742C1392.87 586.539 1410.13 565.51 1441.37 546.134C1433.04 548.475 1419.16 552.385 1409.44 558.141C1397.29 565.337 1383.87 573.698 1374.81 602.841C1365.75 631.984 1372.61 660.421 1386.11 677.54C1392.92 686.18 1402.74 691.336 1410.01 694.314C1409.12 691.488 1406.4 683.92 1402.67 676.251C1398.01 666.664 1384.75 648.945 1388.81 617.742Z" fill="#4B1483"/>
<path d="M1383.76 675.234C1383.06 663.483 1393.7 659.808 1406.28 666.665L1416.72 702.32L1416.71 702.319C1414.15 701.966 1408.9 701.24 1399.94 697.117C1391.54 693.256 1384.46 686.984 1383.76 675.234Z" fill="#F2CBC9"/>
<path d="M1611.99 905.068C1618.44 906.264 1644.26 918.931 1647.13 937.098C1649.99 955.264 1603.62 949.048 1587.13 951.678C1570.64 954.307 1573.28 943.305 1572.09 939.481C1570.89 935.657 1583.78 927.776 1589.76 923.234C1595.74 918.693 1605.54 903.873 1611.99 905.068Z" fill="url(#paint7_linear_187_13)"/>
<path d="M1395.96 989.103C1398.83 969.388 1400.2 907.023 1391.89 872.136L1365.3 912.261C1361.35 945.897 1357.14 1014.65 1353.43 1035.91C1349.71 1057.16 1340.9 1086.8 1338.5 1098.49C1340.66 1104.56 1346.53 1104.87 1362.93 1106.45C1372.35 1107.35 1389.45 1108.4 1398.53 1108.4C1397.57 1081.43 1393.66 1004.87 1395.96 989.103Z" fill="#211A4B"/>
<path d="M1329.84 839.131C1329.48 810.29 1346.08 777.363 1375.72 784.289C1404.04 790.91 1406.53 831.229 1403.01 841.868C1399.49 852.508 1393.6 899.365 1392.21 922.004C1389.77 961.686 1393.41 959.719 1391.03 980.37C1389.14 996.892 1379.54 996.383 1379.37 1007.67L1347.49 990.133C1343.73 963.867 1334.29 939.214 1335.03 916.796C1335.96 888.774 1330.19 867.973 1329.84 839.131Z" fill="#FFDFEB"/>
<path fill-rule="evenodd" clip-rule="evenodd" d="M1652.66 917.296L1653.67 924.688L1624.68 931.28L1558.25 964.493L1490.51 968.262L1593.3 923.877L1652.01 917.275L1652.61 917L1652.64 917.203L1652.9 917.174L1652.66 917.296Z" fill="url(#paint8_linear_187_13)"/>
<path d="M1594.37 931.322L1491.58 975.707L1552.75 969.516L1653.97 924.619L1594.37 931.322Z" fill="url(#paint9_linear_187_13)"/>
<path d="M1443.68 958.34C1415.47 958.074 1392.67 952.127 1361.04 968.558L1340.75 978.384C1341.1 991.701 1360.84 1005.89 1377.76 1010.16C1398.92 1015.51 1511.62 982.299 1543.69 975.332L1537.57 952.184C1519.25 953.068 1466.25 958.552 1443.68 958.34Z" fill="#FFDFEB"/>
<path d="M1347.74 959.28C1345.4 940.375 1349.29 917.063 1350.07 876.66L1334.27 886.243V941.149C1334.27 959.019 1338.68 976.727 1343.09 988.123C1346.61 997.239 1362.68 1004.87 1370.28 1007.55C1363.72 995.202 1349.6 974.403 1347.74 959.28Z" fill="#F2D6C9"/>
<path d="M1407.98 844.16C1412.78 807.951 1404.74 797.422 1384.57 785.621C1374.43 780.708 1360.84 774.411 1340.6 798.316C1322.97 819.15 1326.75 854.305 1330.52 894.999C1341.88 879.009 1399.09 875.959 1395.87 899.539C1395.86 899.608 1395.85 899.676 1395.84 899.743C1395.85 899.675 1395.86 899.607 1395.87 899.539C1396.96 892.215 1404.18 872.857 1407.98 844.16Z" fill="#5B1D61"/>
<path d="M1402.99 833.501C1406.18 856.32 1401.05 880.931 1395.29 894.433C1394.7 887.032 1391.95 863.556 1385.62 828.857C1392.06 849.988 1394.02 861.162 1394.19 864.107L1402.99 833.501Z" fill="#211A4B"/>
<path d="M1544.77 950.544C1557.85 950.846 1577.75 943.922 1588.68 947.494C1601.87 951.806 1624.24 958.919 1595.79 970.902C1568.17 982.537 1564.9 980.112 1545.99 978.53C1530.86 977.264 1517.55 978.744 1515.42 978.11L1534.56 953.252L1525.61 955.627L1510.25 954.786C1532.05 939.254 1530.46 937.077 1546.23 937.505C1558.85 937.848 1568.27 942.048 1570.71 943.42L1550.01 949.151L1544.77 950.544Z" fill="#FFDFEB"/>
<g style="mix-blend-mode:hard-light">
<path fill-rule="evenodd" clip-rule="evenodd" d="M1547.44 1152C1547.41 1135.88 1546.6 1119.97 1544.82 1104.61C1547.19 1103.68 1548.38 1102.56 1548.15 1101.21C1546.43 1091.3 1538.31 1026.52 1537.3 1007.15C1537.02 1001.68 1536.65 993.766 1536.25 984.422L1536.34 984.391C1540.57 982.841 1545.39 980.987 1550.55 978.948C1551.23 979.014 1551.89 979.08 1552.53 979.144C1566.12 980.502 1571.68 981.057 1595.79 970.902C1611.08 964.461 1611.69 959.427 1606.94 955.479C1611.39 953.564 1615.27 951.885 1618.31 950.566C1634.17 949.924 1648.77 947.535 1647.13 937.097C1646.67 934.234 1645.65 931.507 1644.23 928.94L1653.97 924.619L1653.67 924.653L1652.66 917.296L1652.9 917.174L1652.64 917.203L1652.61 917L1652.01 917.275L1636.19 919.053C1627.39 910.942 1615.98 905.808 1611.99 905.068C1607.91 904.313 1602.5 909.949 1597.56 915.348C1593.93 914.311 1590.34 913.511 1587.11 913.067C1577.55 911.758 1560.61 918.063 1546.3 926.816C1547.4 915.65 1548.21 904.681 1547.4 895.05C1547.2 892.74 1547.12 890.048 1547.11 887.057C1549.47 889.502 1551.52 892.673 1553.11 896.718C1553.53 886.273 1553.53 859.011 1550.22 833.516C1546.55 805.174 1542.72 789.475 1514.98 778.237C1512.02 776.127 1502.41 773.437 1489.72 769.92C1491.16 770.5 1492.41 771.737 1493.45 773.453C1483.72 770.504 1478.28 766.591 1474.41 762.724C1475.34 758.28 1476.72 753.241 1478.29 748.135C1493.62 743.078 1520.42 725.147 1527.25 709.393C1527.32 709.235 1527.38 709.078 1527.45 708.922C1529.16 712.375 1529.57 715.331 1529.4 717.793C1529.06 722.619 1526.48 726.167 1524.06 729.495C1521.38 733.182 1518.9 736.599 1519.87 741.186C1520.78 745.442 1524.01 747.989 1527.16 750.469C1530.47 753.076 1533.68 755.609 1534.01 759.977C1533.98 761.998 1533.54 763.992 1532.71 765.837C1531.89 767.683 1530.7 769.34 1529.21 770.71C1542.67 761.788 1545.33 755.13 1545.17 749.98C1545.09 747.465 1544.27 745.785 1543.39 743.988C1542.47 742.106 1541.48 740.095 1541.22 736.86C1540.79 731.352 1542.9 727.818 1545.33 723.742C1546.62 721.573 1548 719.249 1549.14 716.393C1551.89 709.696 1550.99 705.636 1549.75 699.976C1548.69 695.182 1547.38 689.241 1547.82 679.577C1548.21 671.05 1549.63 666.121 1550.9 661.746C1552.25 657.081 1553.42 653.045 1552.95 645.948C1552.43 639.673 1550.92 633.545 1548.5 627.784C1548.58 625.629 1548.53 623.602 1548.31 621.765C1548.26 621.378 1548.21 620.888 1548.15 620.303C1547.13 610.508 1543.32 574.12 1506.28 553.204C1480.57 538.69 1438.53 540.422 1409.17 558.301C1397.1 565.462 1383.8 573.913 1374.81 602.841C1369.75 619.105 1369.65 635.149 1372.9 649.129C1374.16 656.989 1376.86 662.908 1380.41 668.914C1381.45 670.798 1382.56 672.598 1383.73 674.307C1383.73 674.61 1383.74 674.919 1383.76 675.234C1384.46 686.984 1391.54 693.256 1399.94 697.116C1403.23 698.631 1406.02 699.687 1408.36 700.435L1408.43 700.545C1410.33 703.54 1412.33 706.318 1414.38 708.896C1413.76 710.28 1413.04 711.559 1412.32 712.854L1412.32 712.855L1412.32 712.856L1412.32 712.856L1412.32 712.856L1412.32 712.856L1412.32 712.856L1412.32 712.856L1412.32 712.856L1412.32 712.857L1412.32 712.857L1412.32 712.857L1412.32 712.857L1412.32 712.857L1412.32 712.857C1409.8 717.34 1407.16 722.021 1408.37 731.962C1409.26 739.202 1414.61 746.594 1420.82 752.813C1419.09 754.465 1417.4 756.018 1415.75 757.478C1411.23 760.715 1406.46 763.164 1402.14 765.279C1402.44 764.648 1402.95 764.21 1403.68 763.995C1403.51 764.032 1403.14 764.062 1402.59 764.108L1402.59 764.108H1402.59C1397.66 764.512 1378 766.124 1354.72 784.98C1354.98 784.982 1355.25 784.986 1355.51 784.993C1350.97 787.668 1346.03 791.907 1340.6 798.316C1323.42 818.614 1326.57 852.505 1330.23 891.869L1330.23 891.872C1330.33 892.911 1330.42 893.953 1330.52 894.999C1331.46 893.673 1332.72 892.435 1334.23 891.294L1334.27 891.699V941.149C1334.27 959.019 1338.68 976.727 1343.09 988.123C1345.07 993.27 1351.07 997.944 1357.27 1001.52C1357.22 1002.25 1357.17 1002.99 1357.11 1003.74C1356.99 1005.01 1356.88 1006.26 1356.76 1007.5C1354.16 1032.61 1346.51 1065.56 1342.01 1084.1C1340.48 1090.01 1339.21 1095.03 1338.5 1098.49C1338.54 1098.61 1338.59 1098.73 1338.63 1098.85C1338.73 1099.51 1339.06 1100.13 1339.63 1100.71C1339.95 1101.15 1340.31 1101.54 1340.72 1101.9C1338.02 1113.13 1335.56 1124.83 1334.62 1132.68C1334.07 1137.26 1334.01 1143.94 1334.32 1152H1547.44ZM1426.69 721.71C1423.61 726.462 1422.14 730.76 1423.77 736.712C1424.5 739.369 1425.76 742.615 1427.26 746.014C1432.03 739.519 1434.63 734.49 1436.11 728.928C1433.05 726.852 1429.87 724.464 1426.69 721.71Z" fill="url(#paint10_linear_187_13)"/>
</g>
<g style="mix-blend-mode:soft-light" opacity="0.35">
<path d="M83.2551 36.5755L1566.21 170.108C1566.21 170.108 1722.05 396.494 1620.4 602.526C1518.75 808.558 1590.01 923 1590.01 923L1562.01 940C1562.01 940 1290.72 532.174 853.574 549.058C416.426 565.941 83.2551 36.5755 83.2551 36.5755Z" fill="url(#paint11_linear_187_13)"/>
</g>
<defs>
<linearGradient id="paint0_linear_187_13" x1="1562.35" y1="970.094" x2="813.609" y2="553.681" gradientUnits="userSpaceOnUse">
<stop stop-color="white"/>
<stop offset="1" stop-color="white" stop-opacity="0"/>
</linearGradient>
<linearGradient id="paint1_linear_187_13" x1="1543.51" y1="981.039" x2="857.487" y2="788.63" gradientUnits="userSpaceOnUse">
<stop stop-color="white"/>
<stop offset="1" stop-color="white" stop-opacity="0"/>
</linearGradient>
<linearGradient id="paint2_linear_187_13" x1="1562.35" y1="970.094" x2="813.609" y2="553.681" gradientUnits="userSpaceOnUse">
<stop stop-color="white"/>
<stop offset="1" stop-color="white" stop-opacity="0"/>
</linearGradient>
<linearGradient id="paint3_linear_187_13" x1="1543.51" y1="981.039" x2="857.487" y2="788.63" gradientUnits="userSpaceOnUse">
<stop stop-color="white"/>
<stop offset="1" stop-color="white" stop-opacity="0"/>
</linearGradient>
<linearGradient id="paint4_linear_187_13" x1="1568.17" y1="927.496" x2="1509.19" y2="987.725" gradientUnits="userSpaceOnUse">
<stop stop-color="#FFE8DF"/>
<stop offset="1" stop-color="#E0B2A0"/>
</linearGradient>
<linearGradient id="paint5_linear_187_13" x1="1453.69" y1="710.095" x2="1449.22" y2="789.236" gradientUnits="userSpaceOnUse">
<stop stop-color="#F0AFAF"/>
<stop offset="1" stop-color="#F5D8CA"/>
</linearGradient>
<linearGradient id="paint6_linear_187_13" x1="1464.42" y1="554.912" x2="1414.9" y2="637.754" gradientUnits="userSpaceOnUse">
<stop stop-color="#54166A"/>
<stop offset="0.40625" stop-color="#4B1483"/>
<stop offset="1" stop-color="#84359F"/>
</linearGradient>
<linearGradient id="paint7_linear_187_13" x1="1602.44" y1="904.417" x2="1609.98" y2="952.017" gradientUnits="userSpaceOnUse">
<stop stop-color="#FFE8DF"/>
<stop offset="1" stop-color="#FFE8DF"/>
</linearGradient>
<linearGradient id="paint8_linear_187_13" x1="1524.55" y1="961.489" x2="1656.48" y2="946.338" gradientUnits="userSpaceOnUse">
<stop stop-color="#4C7070"/>
<stop offset="0.531013" stop-color="#4A5759"/>
<stop offset="0.567708" stop-color="#788C8F"/>
<stop offset="0.963542" stop-color="#7B8285"/>
<stop offset="1" stop-color="#9AA7AD"/>
</linearGradient>
<linearGradient id="paint9_linear_187_13" x1="1607.09" y1="915.906" x2="1560.06" y2="942.551" gradientUnits="userSpaceOnUse">
<stop stop-color="#5C646C"/>
<stop offset="1" stop-color="#3E464D"/>
</linearGradient>
<linearGradient id="paint10_linear_187_13" x1="1585.01" y1="906" x2="1381.01" y2="570" gradientUnits="userSpaceOnUse">
<stop stop-color="#FB44C8"/>
<stop offset="1" stop-color="#FB4444" stop-opacity="0"/>
</linearGradient>
<linearGradient id="paint11_linear_187_13" x1="1629.82" y1="943.181" x2="830.281" y2="509.864" gradientUnits="userSpaceOnUse">
<stop stop-color="white"/>
<stop offset="1" stop-color="white" stop-opacity="0"/>
</linearGradient>
</defs>
</svg>
