<svg width="62" height="39" viewBox="0 0 62 39" fill="none" xmlns="http://www.w3.org/2000/svg">
<path d="M31.354 9.21088C27.9344 3.8032 21.9376 0.228309 15.0736 0.223083C9.17592 0.218593 3.87301 2.86751 0.354261 7.07979C-2.47065 10.4248 12.4469 8.60143 15.0736 11.3803C17.8489 14.3329 17.7498 24.5479 15.0736 27.5956C12.5212 30.4697 -1.5538 29.616 0.354261 31.8737C3.87301 36.0665 9.17592 38.7483 15.0736 38.7528C21.9128 38.758 27.9344 35.1923 31.354 29.7898L55.7622 29.8084C59.8757 29.8115 61.6847 26.0194 61.6847 19.5234C61.6847 13.0274 60.2474 9.23287 55.7622 9.22946L31.354 9.21088Z" fill="#C960FF"/>
</svg>
