<svg width="168" height="29" viewBox="0 0 168 29" fill="none" xmlns="http://www.w3.org/2000/svg">
	<path d="M7 7L10.5147 10.5147C15.201 15.201 22.799 15.201 27.4853 10.5147L31.0147 6.98528C35.701 2.29899 43.299 2.29899 47.9853 6.98528L51.5147 10.5147C56.201 15.201 63.799 15.201 68.4853 10.5147L72.0147 6.98528C76.701 2.29899 84.299 2.29899 88.9853 6.98528L92.5147 10.5147C97.201 15.201 104.799 15.201 109.485 10.5147L113.015 6.98528C117.701 2.29899 125.299 2.29899 129.985 6.98528L137.015 14.0147C141.701 18.701 149.299 18.701 153.985 14.0147L161 7" stroke="#C960FF" strokeWidth="6" strokeLinecap="round"/>
</svg>
