<?xml version="1.0" encoding="UTF-8" standalone="no"?>
<svg
   xmlns:dc="http://purl.org/dc/elements/1.1/"
   xmlns:cc="http://creativecommons.org/ns#"
   xmlns:rdf="http://www.w3.org/1999/02/22-rdf-syntax-ns#"
   xmlns:svg="http://www.w3.org/2000/svg"
   xmlns="http://www.w3.org/2000/svg"
   xmlns:sodipodi="http://sodipodi.sourceforge.net/DTD/sodipodi-0.dtd"
   xmlns:inkscape="http://www.inkscape.org/namespaces/inkscape"
   width="168.28125"
   height="28.57115"
   viewBox="0 0 168.28125 28.57115"
   fill="none"
   version="1.1"
   id="svg12"
   sodipodi:docname="squiggle.svg"
   inkscape:version="1.0.1 (3bc2e813f5, 2020-09-07, custom)">
  <metadata
     id="metadata18">
    <rdf:RDF>
      <cc:Work
         rdf:about="">
        <dc:format>image/svg+xml</dc:format>
        <dc:type
           rdf:resource="http://purl.org/dc/dcmitype/StillImage" />
        <dc:title></dc:title>
      </cc:Work>
    </rdf:RDF>
  </metadata>
  <defs
     id="defs16" />
  <sodipodi:namedview
     pagecolor="#ffffff"
     bordercolor="#666666"
     borderopacity="1"
     objecttolerance="10"
     gridtolerance="10"
     guidetolerance="10"
     inkscape:pageopacity="0"
     inkscape:pageshadow="2"
     inkscape:window-width="1920"
     inkscape:window-height="1025"
     id="namedview14"
     showgrid="false"
     inkscape:zoom="2.6309524"
     inkscape:cx="70.468481"
     inkscape:cy="-47.802199"
     inkscape:window-x="0"
     inkscape:window-y="0"
     inkscape:window-maximized="1"
     inkscape:current-layer="svg12"
     inkscape:document-rotation="0"
     lock-margins="false"
     fit-margin-top="7"
     fit-margin-left="9"
     fit-margin-right="9"
     fit-margin-bottom="7" />
  <path
     id="path852"
     style="color:#000000;font-style:normal;font-variant:normal;font-weight:normal;font-stretch:normal;font-size:medium;line-height:normal;font-family:sans-serif;font-variant-ligatures:normal;font-variant-position:normal;font-variant-caps:normal;font-variant-numeric:normal;font-variant-alternates:normal;font-variant-east-asian:normal;font-feature-settings:normal;font-variation-settings:normal;text-indent:0;text-align:start;text-decoration:none;text-decoration-line:none;text-decoration-style:solid;text-decoration-color:#000000;letter-spacing:normal;word-spacing:normal;text-transform:none;writing-mode:lr-tb;direction:ltr;text-orientation:mixed;dominant-baseline:auto;baseline-shift:baseline;text-anchor:start;white-space:normal;shape-padding:0;shape-margin:0;inline-size:0;clip-rule:nonzero;display:inline;overflow:visible;visibility:visible;opacity:1;isolation:auto;mix-blend-mode:normal;color-interpolation:sRGB;color-interpolation-filters:linearRGB;solid-color:#000000;solid-opacity:1;vector-effect:none;fill:#c960ff;fill-opacity:1;fill-rule:nonzero;stroke:none;stroke-width:4;stroke-linecap:butt;stroke-linejoin:miter;stroke-miterlimit:4;stroke-dasharray:none;stroke-dashoffset:0;stroke-opacity:1;color-rendering:auto;image-rendering:auto;shape-rendering:auto;text-rendering:auto;enable-background:accumulate;stop-color:#000000;stop-opacity:1"
     d="m 42.914062,7 c -3.587105,0 -7.175091,1.362598 -9.900391,4.08789 l -3.529296,3.529297 c -3.922002,3.922002 -10.218624,3.922002 -14.140624,0 L 11.828125,11.103516 9,13.93164 l 3.513672,3.515626 c 5.450599,5.450597 14.350183,5.450598 19.800781,0 l 3.529297,-3.529297 c 3.921998,-3.921993 10.218624,-3.921993 14.140625,0 l 3.529296,3.529297 c 2.726791,2.726789 6.316744,4.081631 9.954102,4.081631 3.637358,1e-6 7.227313,-1.354842 9.954102,-4.081631 l 3.529296,-3.529297 c 3.922001,-3.921993 10.218627,-3.921993 14.140625,0 l 3.529297,3.529297 c 2.787211,2.787209 6.475927,4.137596 10.120897,4.123779 3.64497,-0.01382 7.27456,-1.372744 10.02559,-4.123779 l 3.52929,-3.529297 c 3.922,-3.921993 10.21863,-3.921993 14.14063,0 l 3.52929,3.529297 c 5.4506,5.450598 14.35019,5.450597 19.80079,0 l 3.51367,-3.515626 -2.82813,-2.828124 -3.51562,3.513671 c -3.922,3.922002 -10.21863,3.922002 -14.14063,0 L 135.26758,11.08789 C 132.54228,8.362598 128.95429,7 125.36718,7 c -3.58711,0 -7.17509,1.362597 -9.90039,4.08789 l -3.52929,3.529297 c -1.97948,1.979485 -4.5639,2.954233 -7.17581,2.977259 -2.6119,0.02303 -5.279471,-0.946212 -7.310519,-2.977259 L 93.921875,11.08789 C 91.196575,8.362598 87.60859,7 84.021484,7 80.434378,7 76.846392,8.362598 74.121093,11.08789 l -3.529297,3.529297 c -1.974508,1.97451 -4.550822,2.949194 -7.123046,2.935547 -2.572871,0.01415 -5.149993,-0.960538 -7.125,-2.935547 L 52.814453,11.08789 C 50.089154,8.362597 46.501168,7 42.914062,7 Z"
     sodipodi:nodetypes="sssccccsssscsssscssssccccssssscssssscsss" />
</svg>
